<?xml version="1.0" encoding="UTF-8" standalone="no"?>
<!DOCTYPE svg PUBLIC "-//W3C//DTD SVG 1.1//EN"
 "http://www.w3.org/Graphics/SVG/1.1/DTD/svg11.dtd">
<!-- Generated by graphviz version 2.40.1 (20161225.0304)
 -->
<!-- Title: G Pages: 1 -->
<svg width="640pt" height="516pt"
 viewBox="0.00 0.00 640.06 516.00" xmlns="http://www.w3.org/2000/svg" xmlns:xlink="http://www.w3.org/1999/xlink">
<g id="graph0" class="graph" transform="scale(1 1) rotate(0) translate(4 512)">
<title>G</title>
<polygon fill="#ffffff" stroke="transparent" points="-4,4 -4,-512 636.061,-512 636.061,4 -4,4"/>
<!-- A0 -->
<g id="node1" class="node">
<title>A0</title>
<polygon fill="none" stroke="#000000" points="43.5,-302 43.5,-334 157.5,-334 157.5,-302 43.5,-302"/>
<text text-anchor="start" x="86.052" y="-315" font-family="Helvetica,sans-Serif" font-size="10.00" fill="#000000">House</text>
<polygon fill="none" stroke="#000000" points="43.5,-258 43.5,-302 157.5,-302 157.5,-258 43.5,-258"/>
<text text-anchor="start" x="53.2735" y="-283" font-family="Helvetica,sans-Serif" font-size="10.00" fill="#000000">currentDishwasherId:</text>
<text text-anchor="start" x="88.2775" y="-271" font-family="Helvetica,sans-Serif" font-size="10.00" fill="#000000">string</text>
</g>
<!-- A1 -->
<g id="node2" class="node">
<title>A1</title>
<polygon fill="none" stroke="#000000" points=".5,-112 .5,-144 85.5,-144 85.5,-112 .5,-112"/>
<text text-anchor="start" x="16.889" y="-125" font-family="Helvetica,sans-Serif" font-size="10.00" fill="#000000">Dishwasher</text>
<polygon fill="none" stroke="#000000" points=".5,-80 .5,-112 85.5,-112 85.5,-80 .5,-80"/>
<text text-anchor="start" x="10.2115" y="-93" font-family="Helvetica,sans-Serif" font-size="10.00" fill="#000000">houseId: string</text>
<polygon fill="none" stroke="#000000" points=".5,-48 .5,-80 85.5,-80 85.5,-48 .5,-48"/>
<text text-anchor="start" x="15.4955" y="-61" font-family="Helvetica,sans-Serif" font-size="10.00" fill="#000000">name: string</text>
</g>
<!-- A0&#45;&gt;A1 -->
<g id="edge4" class="edge">
<title>A0&#45;&gt;A1</title>
<path fill="none" stroke="#000000" d="M86.0033,-246.0112C76.972,-214.869 65.4136,-175.0124 56.481,-144.2102"/>
<polygon fill="none" stroke="#000000" points="86.1118,-246.3856 91.6247,-251.0341 89.4541,-257.9108 83.9412,-253.2623 86.1118,-246.3856"/>
</g>
<!-- A5 -->
<g id="node6" class="node">
<title>A5</title>
<polygon fill="none" stroke="#000000" points="103.5,-160 103.5,-192 213.5,-192 213.5,-160 103.5,-160"/>
<text text-anchor="start" x="134.33" y="-173" font-family="Helvetica,sans-Serif" font-size="10.00" fill="#000000">FinePeriod</text>
<polygon fill="none" stroke="#000000" points="103.5,-128 103.5,-160 213.5,-160 213.5,-128 103.5,-128"/>
<text text-anchor="start" x="125.7115" y="-141" font-family="Helvetica,sans-Serif" font-size="10.00" fill="#000000">houseId: string</text>
<polygon fill="none" stroke="#000000" points="103.5,-96 103.5,-128 213.5,-128 213.5,-96 103.5,-96"/>
<text text-anchor="start" x="127.1065" y="-109" font-family="Helvetica,sans-Serif" font-size="10.00" fill="#000000">order: number</text>
<polygon fill="none" stroke="#000000" points="103.5,-64 103.5,-96 213.5,-96 213.5,-64 103.5,-64"/>
<text text-anchor="start" x="120.713" y="-77" font-family="Helvetica,sans-Serif" font-size="10.00" fill="#000000">duration: number</text>
<polygon fill="none" stroke="#000000" points="103.5,-32 103.5,-64 213.5,-64 213.5,-32 103.5,-32"/>
<text text-anchor="start" x="113.489" y="-45" font-family="Helvetica,sans-Serif" font-size="10.00" fill="#000000">fineAmount: number</text>
<polygon fill="none" stroke="#000000" points="103.5,0 103.5,-32 213.5,-32 213.5,0 103.5,0"/>
<text text-anchor="start" x="123.4925" y="-13" font-family="Helvetica,sans-Serif" font-size="10.00" fill="#000000">isFinal: boolean</text>
</g>
<!-- A0&#45;&gt;A5 -->
<g id="edge5" class="edge">
<title>A0&#45;&gt;A5</title>
<path fill="none" stroke="#000000" d="M114.8917,-246.3734C119.676,-229.8757 125.1783,-210.9023 130.6275,-192.1122"/>
<polygon fill="none" stroke="#000000" points="114.8882,-246.3856 117.0588,-253.2623 111.5459,-257.9108 109.3753,-251.0341 114.8882,-246.3856"/>
</g>
<!-- A2 -->
<g id="node3" class="node">
<title>A2</title>
<polygon fill="none" stroke="#000000" points="345.5,-472 291.5,-472 291.5,-436 345.5,-436 345.5,-472"/>
<text text-anchor="middle" x="318.5" y="-451" font-family="Helvetica,sans-Serif" font-size="10.00" fill="#000000">User</text>
</g>
<!-- A4 -->
<g id="node5" class="node">
<title>A4</title>
<polygon fill="none" stroke="#000000" points="224.5,-318 224.5,-350 315.5,-350 315.5,-318 224.5,-318"/>
<text text-anchor="start" x="238.61" y="-331" font-family="Helvetica,sans-Serif" font-size="10.00" fill="#000000">GroupMeUser</text>
<polygon fill="none" stroke="#000000" points="224.5,-286 224.5,-318 315.5,-318 315.5,-286 224.5,-286"/>
<text text-anchor="start" x="241.106" y="-299" font-family="Helvetica,sans-Serif" font-size="10.00" fill="#000000">userId: string</text>
<polygon fill="none" stroke="#000000" points="224.5,-242 224.5,-286 315.5,-286 315.5,-242 224.5,-242"/>
<text text-anchor="start" x="234.432" y="-267" font-family="Helvetica,sans-Serif" font-size="10.00" fill="#000000">groupMeAuthId:</text>
<text text-anchor="start" x="257.7775" y="-255" font-family="Helvetica,sans-Serif" font-size="10.00" fill="#000000">string</text>
</g>
<!-- A2&#45;&gt;A4 -->
<g id="edge2" class="edge">
<title>A2&#45;&gt;A4</title>
<path fill="none" stroke="#000000" d="M309.9068,-426.2915C304.1996,-407.8884 296.4637,-382.9442 289.2882,-359.8069"/>
<polygon fill="#000000" stroke="#000000" points="312.8791,-435.8754 305.6189,-427.6571 311.398,-431.0998 309.9169,-426.3242 309.9169,-426.3242 309.9169,-426.3242 311.398,-431.0998 314.215,-424.9912 312.8791,-435.8754 312.8791,-435.8754"/>
<polygon fill="#000000" stroke="#000000" points="286.2549,-350.0259 293.5151,-358.2441 287.7359,-354.8015 289.217,-359.5771 289.217,-359.5771 289.217,-359.5771 287.7359,-354.8015 284.919,-360.9101 286.2549,-350.0259 286.2549,-350.0259"/>
</g>
<!-- A7 -->
<g id="node8" class="node">
<title>A7</title>
<polygon fill="none" stroke="#000000" points="469.3455,-472 363.6545,-472 363.6545,-436 475.3455,-436 475.3455,-466 469.3455,-472"/>
<polyline fill="none" stroke="#000000" points="469.3455,-472 469.3455,-466 "/>
<polyline fill="none" stroke="#000000" points="475.3455,-466 469.3455,-466 "/>
<text text-anchor="middle" x="419.5" y="-457" font-family="Helvetica,sans-Serif" font-size="10.00" fill="#000000">Users are supplied</text>
<text text-anchor="middle" x="419.5" y="-445" font-family="Helvetica,sans-Serif" font-size="10.00" fill="#000000">by AWS Cognito</text>
</g>
<!-- A2&#45;&gt;A7 -->
<g id="edge3" class="edge">
<title>A2&#45;&gt;A7</title>
<path fill="none" stroke="#000000" stroke-dasharray="5,2" d="M345.7227,-454C351.6786,-454 357.6346,-454 363.5906,-454"/>
</g>
<!-- A3 -->
<g id="node4" class="node">
<title>A3</title>
<polygon fill="none" stroke="#000000" points="51.5,-476 51.5,-508 149.5,-508 149.5,-476 51.5,-476"/>
<text text-anchor="start" x="65.771" y="-489" font-family="Helvetica,sans-Serif" font-size="10.00" fill="#000000">GroupMeGroup</text>
<polygon fill="none" stroke="#000000" points="51.5,-444 51.5,-476 149.5,-476 149.5,-444 51.5,-444"/>
<text text-anchor="start" x="67.7115" y="-457" font-family="Helvetica,sans-Serif" font-size="10.00" fill="#000000">houseId: string</text>
<polygon fill="none" stroke="#000000" points="51.5,-400 51.5,-444 149.5,-444 149.5,-400 51.5,-400"/>
<text text-anchor="start" x="61.3225" y="-425" font-family="Helvetica,sans-Serif" font-size="10.00" fill="#000000">groupMeGroupId:</text>
<text text-anchor="start" x="88.2775" y="-413" font-family="Helvetica,sans-Serif" font-size="10.00" fill="#000000">string</text>
</g>
<!-- A3&#45;&gt;A0 -->
<g id="edge7" class="edge">
<title>A3&#45;&gt;A0</title>
<path fill="none" stroke="#000000" d="M100.5,-389.5886C100.5,-374.4038 100.5,-358.474 100.5,-344.1496"/>
<polygon fill="#000000" stroke="#000000" points="100.5,-399.6254 96.0001,-389.6253 100.5,-394.6254 100.5001,-389.6254 100.5001,-389.6254 100.5001,-389.6254 100.5,-394.6254 105.0001,-389.6254 100.5,-399.6254 100.5,-399.6254"/>
<polygon fill="#000000" stroke="#000000" points="100.5,-334.0366 105.0001,-344.0365 100.5,-339.0366 100.5001,-344.0366 100.5001,-344.0366 100.5001,-344.0366 100.5,-339.0366 96.0001,-344.0366 100.5,-334.0366 100.5,-334.0366"/>
</g>
<!-- A3&#45;&gt;A4 -->
<g id="edge6" class="edge">
<title>A3&#45;&gt;A4</title>
<path fill="none" stroke="#000000" stroke-dasharray="5,2" d="M149.8361,-407.8751C170.7525,-388.3202 195.1675,-365.4943 216.4695,-345.5788"/>
<polygon fill="#000000" stroke="#000000" points="223.8636,-338.666 219.632,-348.7825 220.2112,-342.0807 216.5588,-345.4954 216.5588,-345.4954 216.5588,-345.4954 220.2112,-342.0807 213.4856,-342.2082 223.8636,-338.666 223.8636,-338.666"/>
</g>
<!-- A6 -->
<g id="node7" class="node">
<title>A6</title>
<polygon fill="none" stroke="#000000" points="267.8576,-494 167.1424,-494 167.1424,-414 273.8576,-414 273.8576,-488 267.8576,-494"/>
<polyline fill="none" stroke="#000000" points="267.8576,-494 267.8576,-488 "/>
<polyline fill="none" stroke="#000000" points="273.8576,-488 267.8576,-488 "/>
<text text-anchor="middle" x="220.5" y="-481" font-family="Helvetica,sans-Serif" font-size="10.00" fill="#000000">Not every group</text>
<text text-anchor="middle" x="220.5" y="-469" font-family="Helvetica,sans-Serif" font-size="10.00" fill="#000000">discovered by the</text>
<text text-anchor="middle" x="220.5" y="-457" font-family="Helvetica,sans-Serif" font-size="10.00" fill="#000000">user while</text>
<text text-anchor="middle" x="220.5" y="-445" font-family="Helvetica,sans-Serif" font-size="10.00" fill="#000000">authenticated will</text>
<text text-anchor="middle" x="220.5" y="-433" font-family="Helvetica,sans-Serif" font-size="10.00" fill="#000000">be saved to the</text>
<text text-anchor="middle" x="220.5" y="-421" font-family="Helvetica,sans-Serif" font-size="10.00" fill="#000000">database</text>
</g>
<!-- A3&#45;&gt;A6 -->
<g id="edge1" class="edge">
<title>A3&#45;&gt;A6</title>
<path fill="none" stroke="#000000" stroke-dasharray="5,2" d="M149.7188,-454C155.525,-454 161.3313,-454 167.1376,-454"/>
</g>
<!-- A8 -->
<g id="node9" class="node">
<title>A8</title>
<polygon fill="none" stroke="#000000" points="626.1221,-488 492.8779,-488 492.8779,-420 632.1221,-420 632.1221,-482 626.1221,-488"/>
<polyline fill="none" stroke="#000000" points="626.1221,-488 626.1221,-482 "/>
<polyline fill="none" stroke="#000000" points="632.1221,-482 626.1221,-482 "/>
<text text-anchor="middle" x="562.5" y="-475" font-family="Helvetica,sans-Serif" font-size="10.00" fill="#000000">Notice that</text>
<text text-anchor="middle" x="562.5" y="-463" font-family="Helvetica,sans-Serif" font-size="10.00" fill="#000000">GroupMeGroupMembers</text>
<text text-anchor="middle" x="562.5" y="-451" font-family="Helvetica,sans-Serif" font-size="10.00" fill="#000000">could&#39;ve been added</text>
<text text-anchor="middle" x="562.5" y="-439" font-family="Helvetica,sans-Serif" font-size="10.00" fill="#000000">but I decided not to</text>
<text text-anchor="middle" x="562.5" y="-427" font-family="Helvetica,sans-Serif" font-size="10.00" fill="#000000">model that</text>
</g>
</g>
</svg>
