<?xml version="1.0" encoding="UTF-8" standalone="no"?>
<!DOCTYPE svg PUBLIC "-//W3C//DTD SVG 1.1//EN"
 "http://www.w3.org/Graphics/SVG/1.1/DTD/svg11.dtd">
<!-- Generated by graphviz version 2.40.1 (20161225.0304)
 -->
<!-- Title: G Pages: 1 -->
<svg width="861pt" height="328pt"
 viewBox="0.00 0.00 861.33 327.63" xmlns="http://www.w3.org/2000/svg" xmlns:xlink="http://www.w3.org/1999/xlink">
<g id="graph0" class="graph" transform="scale(1 1) rotate(0) translate(4 323.6274)">
<title>G</title>
<polygon fill="#ffffff" stroke="transparent" points="-4,4 -4,-323.6274 857.33,-323.6274 857.33,4 -4,4"/>
<!-- A0 -->
<g id="node1" class="node">
<title>A0</title>
<g transform="translate(67.068,-116)" style="fill:none;stroke:black;stroke-width:1px"><circle cx="0" cy="-20" r="7.5" />
                <line x1="0" y1="-12.5" x2="0" y2="5" />
                <line x1="-15" y1="-5" x2="15" y2="-5" />
                <line x1="0" y1="5" x2="-15" y2="17" />
                <line x1="0" y1="5" x2="15" y2="17" /></g>
<text text-anchor="middle" x="67.068" y="-91" font-family="Helvetica,sans-Serif" font-size="10.00" fill="#000000">House Organizer</text>
</g>
<!-- A1 -->
<g id="node2" class="node">
<title>A1</title>
<g transform="translate(271.7304,-235)" style="fill:none;stroke:black;stroke-width:1px"><circle cx="0" cy="-20" r="7.5" />
                <line x1="0" y1="-12.5" x2="0" y2="5" />
                <line x1="-15" y1="-5" x2="15" y2="-5" />
                <line x1="0" y1="5" x2="-15" y2="17" />
                <line x1="0" y1="5" x2="15" y2="17" /></g>
<text text-anchor="middle" x="271.7304" y="-210" font-family="Helvetica,sans-Serif" font-size="10.00" fill="#000000">Dishwasher</text>
</g>
<!-- A0&#45;&gt;A1 -->
<g id="edge1" class="edge">
<title>A0&#45;&gt;A1</title>
<path fill="none" stroke="#000000" d="M122.6615,-155.1303C142.2057,-167.4874 164.4521,-181.1693 185.136,-193 192.3239,-197.1113 199.9236,-201.293 207.5158,-205.3684"/>
<polygon fill="none" stroke="#000000" points="205.9272,-208.4877 216.3998,-210.0931 209.2141,-202.3074 205.9272,-208.4877"/>
</g>
<!-- A4 -->
<g id="node5" class="node">
<title>A4</title>
<ellipse fill="none" stroke="#000000" cx="271.7304" cy="-98" rx="86.6889" ry="22.7556"/>
<text text-anchor="middle" x="271.7304" y="-101" font-family="Helvetica,sans-Serif" font-size="10.00" fill="#000000">Adding a Dishwasher</text>
<text text-anchor="middle" x="271.7304" y="-89" font-family="Helvetica,sans-Serif" font-size="10.00" fill="#000000">to a House</text>
</g>
<!-- A0&#45;&gt;A4 -->
<g id="edge2" class="edge">
<title>A0&#45;&gt;A4</title>
<path fill="none" stroke="#000000" d="M134.3656,-112.0947C152.4241,-110.2418 172.1379,-108.219 190.8499,-106.299"/>
</g>
<!-- A5 -->
<g id="node6" class="node">
<title>A5</title>
<ellipse fill="none" stroke="#000000" cx="271.7304" cy="-35" rx="85.3258" ry="22.7556"/>
<text text-anchor="middle" x="271.7304" y="-38" font-family="Helvetica,sans-Serif" font-size="10.00" fill="#000000">Create a House from</text>
<text text-anchor="middle" x="271.7304" y="-26" font-family="Helvetica,sans-Serif" font-size="10.00" fill="#000000">a GroupMe group</text>
</g>
<!-- A0&#45;&gt;A5 -->
<g id="edge3" class="edge">
<title>A0&#45;&gt;A5</title>
<path fill="none" stroke="#000000" d="M134.4205,-87.675C150.9022,-80.3125 168.5668,-72.6729 185.136,-66 196.0969,-61.5858 207.9566,-57.1332 219.2796,-53.0334"/>
</g>
<!-- A8 -->
<g id="node9" class="node">
<title>A8</title>
<ellipse fill="none" stroke="#000000" cx="271.7304" cy="-161" rx="70.768" ry="22.7556"/>
<text text-anchor="middle" x="271.7304" y="-164" font-family="Helvetica,sans-Serif" font-size="10.00" fill="#000000">Change order of</text>
<text text-anchor="middle" x="271.7304" y="-152" font-family="Helvetica,sans-Serif" font-size="10.00" fill="#000000">Dishwashers</text>
</g>
<!-- A0&#45;&gt;A8 -->
<g id="edge6" class="edge">
<title>A0&#45;&gt;A8</title>
<path fill="none" stroke="#000000" d="M134.3656,-132.8105C159.4145,-137.951 187.6483,-143.745 211.9753,-148.7373"/>
</g>
<!-- A7 -->
<g id="node8" class="node">
<title>A7</title>
<ellipse fill="none" stroke="#000000" cx="540.039" cy="-297" rx="78.1867" ry="22.7556"/>
<text text-anchor="middle" x="540.039" y="-300" font-family="Helvetica,sans-Serif" font-size="10.00" fill="#000000">See who is current</text>
<text text-anchor="middle" x="540.039" y="-288" font-family="Helvetica,sans-Serif" font-size="10.00" fill="#000000">Dishwasher</text>
</g>
<!-- A1&#45;&gt;A7 -->
<g id="edge4" class="edge">
<title>A1&#45;&gt;A7</title>
<path fill="none" stroke="#000000" d="M327.3241,-250.2248C371.0701,-259.8444 432.024,-273.2479 477.4738,-283.2422"/>
</g>
<!-- A10 -->
<g id="node11" class="node">
<title>A10</title>
<ellipse fill="none" stroke="#000000" cx="540.039" cy="-238" rx="46.4762" ry="18"/>
<text text-anchor="middle" x="540.039" y="-235" font-family="Helvetica,sans-Serif" font-size="10.00" fill="#000000">View Fines</text>
</g>
<!-- A1&#45;&gt;A10 -->
<g id="edge11" class="edge">
<title>A1&#45;&gt;A10</title>
<path fill="none" stroke="#000000" d="M327.3241,-238C376.4424,-238 447.2546,-238 493.4565,-238"/>
</g>
<!-- A12 -->
<g id="node13" class="node">
<title>A12</title>
<ellipse fill="none" stroke="#000000" cx="540.039" cy="-179" rx="63.591" ry="22.7556"/>
<text text-anchor="middle" x="540.039" y="-182" font-family="Helvetica,sans-Serif" font-size="10.00" fill="#000000">See who next</text>
<text text-anchor="middle" x="540.039" y="-170" font-family="Helvetica,sans-Serif" font-size="10.00" fill="#000000">Dishwasher is</text>
</g>
<!-- A1&#45;&gt;A12 -->
<g id="edge14" class="edge">
<title>A1&#45;&gt;A12</title>
<path fill="none" stroke="#000000" d="M327.3241,-225.7752C373.6795,-215.5818 439.3569,-201.1396 485.4345,-191.0073"/>
</g>
<!-- A2 -->
<g id="node3" class="node">
<title>A2</title>
<ellipse fill="none" stroke="#000000" cx="788.3711" cy="-18" rx="64.9179" ry="18"/>
<text text-anchor="middle" x="788.3711" y="-15" font-family="Helvetica,sans-Serif" font-size="10.00" fill="#000000">Login to GroupMe</text>
</g>
<!-- A3 -->
<g id="node4" class="node">
<title>A3</title>
<ellipse fill="none" stroke="#000000" cx="788.3711" cy="-94" rx="60.063" ry="18"/>
<text text-anchor="middle" x="788.3711" y="-91" font-family="Helvetica,sans-Serif" font-size="10.00" fill="#000000">Login to Dishbot</text>
</g>
<!-- A9 -->
<g id="node10" class="node">
<title>A9</title>
<ellipse fill="none" stroke="#000000" cx="540.039" cy="-120" rx="57.7153" ry="18"/>
<text text-anchor="middle" x="540.039" y="-117" font-family="Helvetica,sans-Serif" font-size="10.00" fill="#000000">Manage House</text>
</g>
<!-- A4&#45;&gt;A9 -->
<g id="edge8" class="edge">
<title>A4&#45;&gt;A9</title>
<path fill="none" stroke="#000000" stroke-dasharray="5,2" d="M364.4089,-105.5992C404.1898,-108.861 449.3671,-112.5653 483.9395,-115.4001"/>
<polygon fill="#000000" stroke="#000000" points="354.4212,-104.7802 364.7555,-101.1126 359.4044,-105.1889 364.3877,-105.5975 364.3877,-105.5975 364.3877,-105.5975 359.4044,-105.1889 364.0199,-110.0825 354.4212,-104.7802 354.4212,-104.7802"/>
<text text-anchor="middle" x="410.0103" y="-114" font-family="Helvetica,sans-Serif" font-size="10.00" fill="#000000">&lt;&lt;extend&gt;&gt;</text>
</g>
<!-- A5&#45;&gt;A3 -->
<g id="edge5" class="edge">
<title>A5&#45;&gt;A3</title>
<path fill="none" stroke="#000000" stroke-dasharray="5,2" d="M350.197,-43.9608C451.6506,-55.5468 626.5814,-75.5237 721.8419,-86.4024"/>
<polygon fill="#000000" stroke="#000000" points="731.9302,-87.5545 721.4842,-90.8907 726.9625,-86.9871 721.9948,-86.4198 721.9948,-86.4198 721.9948,-86.4198 726.9625,-86.9871 722.5054,-81.9488 731.9302,-87.5545 731.9302,-87.5545"/>
<text text-anchor="middle" x="540.039" y="-78" font-family="Helvetica,sans-Serif" font-size="10.00" fill="#000000">&lt;&lt;include&gt;&gt;</text>
</g>
<!-- A6 -->
<g id="node7" class="node">
<title>A6</title>
<ellipse fill="none" stroke="#000000" cx="540.039" cy="-18" rx="74.1307" ry="18"/>
<text text-anchor="middle" x="540.039" y="-15" font-family="Helvetica,sans-Serif" font-size="10.00" fill="#000000">See GroupMe groups</text>
</g>
<!-- A5&#45;&gt;A6 -->
<g id="edge16" class="edge">
<title>A5&#45;&gt;A6</title>
<path fill="none" stroke="#000000" stroke-dasharray="5,2" d="M365.4629,-29.0611C399.1012,-26.9298 436.4794,-24.5615 467.9912,-22.5649"/>
<polygon fill="#000000" stroke="#000000" points="355.1542,-29.7143 364.8496,-24.5909 360.1442,-29.3981 365.1342,-29.0819 365.1342,-29.0819 365.1342,-29.0819 360.1442,-29.3981 365.4188,-33.5729 355.1542,-29.7143 355.1542,-29.7143"/>
<text text-anchor="middle" x="410.0103" y="-31" font-family="Helvetica,sans-Serif" font-size="10.00" fill="#000000">&lt;&lt;extend&gt;&gt;</text>
</g>
<!-- A6&#45;&gt;A2 -->
<g id="edge15" class="edge">
<title>A6&#45;&gt;A2</title>
<path fill="none" stroke="#000000" stroke-dasharray="5,2" d="M614.5468,-18C645.6092,-18 681.6358,-18 712.809,-18"/>
<polygon fill="#000000" stroke="#000000" points="723.1806,-18 713.1806,-22.5001 718.1806,-18 713.1806,-18.0001 713.1806,-18.0001 713.1806,-18.0001 718.1806,-18 713.1805,-13.5001 723.1806,-18 723.1806,-18"/>
<text text-anchor="middle" x="670.8972" y="-21" font-family="Helvetica,sans-Serif" font-size="10.00" fill="#000000">&lt;&lt;include&gt;&gt;</text>
</g>
<!-- A11 -->
<g id="node12" class="node">
<title>A11</title>
<ellipse fill="none" stroke="#000000" cx="788.3711" cy="-208" rx="48.827" ry="18"/>
<text text-anchor="middle" x="788.3711" y="-205" font-family="Helvetica,sans-Serif" font-size="10.00" fill="#000000">View House</text>
</g>
<!-- A7&#45;&gt;A11 -->
<g id="edge12" class="edge">
<title>A7&#45;&gt;A11</title>
<path fill="none" stroke="#000000" stroke-dasharray="5,2" d="M599.0387,-275.855C646.9993,-258.6664 713.061,-234.9905 753.13,-220.6301"/>
<polygon fill="#000000" stroke="#000000" points="589.3984,-279.3101 597.2938,-271.7 594.1052,-277.6231 598.8121,-275.9362 598.8121,-275.9362 598.8121,-275.9362 594.1052,-277.6231 600.3303,-280.1724 589.3984,-279.3101 589.3984,-279.3101"/>
<text text-anchor="middle" x="670.8972" y="-260" font-family="Helvetica,sans-Serif" font-size="10.00" fill="#000000">&lt;&lt;extend&gt;&gt;</text>
</g>
<!-- A8&#45;&gt;A9 -->
<g id="edge7" class="edge">
<title>A8&#45;&gt;A9</title>
<path fill="none" stroke="#000000" stroke-dasharray="5,2" d="M346.0264,-149.6469C391.1416,-142.7529 447.618,-134.1228 487.9833,-127.9546"/>
<polygon fill="#000000" stroke="#000000" points="335.997,-151.1795 345.2025,-145.2205 340.9396,-150.4242 345.8823,-149.6688 345.8823,-149.6688 345.8823,-149.6688 340.9396,-150.4242 346.5621,-154.1172 335.997,-151.1795 335.997,-151.1795"/>
<text text-anchor="middle" x="410.0103" y="-146" font-family="Helvetica,sans-Serif" font-size="10.00" fill="#000000">&lt;&lt;extend&gt;&gt;</text>
</g>
<!-- A9&#45;&gt;A3 -->
<g id="edge9" class="edge">
<title>A9&#45;&gt;A3</title>
<path fill="none" stroke="#000000" stroke-dasharray="5,2" d="M594.844,-114.262C632.0292,-110.3688 681.4344,-105.1961 721.0185,-101.0517"/>
<polygon fill="#000000" stroke="#000000" points="731.118,-99.9943 721.641,-105.5112 726.1452,-100.515 721.1724,-101.0357 721.1724,-101.0357 721.1724,-101.0357 726.1452,-100.515 720.7037,-96.5602 731.118,-99.9943 731.118,-99.9943"/>
<text text-anchor="middle" x="670.8972" y="-112" font-family="Helvetica,sans-Serif" font-size="10.00" fill="#000000">&lt;&lt;include&gt;&gt;</text>
</g>
<!-- A9&#45;&gt;A11 -->
<g id="edge17" class="edge">
<title>A9&#45;&gt;A11</title>
<path fill="none" stroke="#000000" stroke-dasharray="5,2" d="M588.7381,-136.7441C598.5555,-140.1307 608.8011,-143.6729 618.3822,-147 653.9801,-159.3614 662.9379,-162.2885 698.4122,-175 716.735,-181.5656 737.1,-189.0228 753.8133,-195.1852"/>
<polygon fill="#000000" stroke="#000000" points="579.1038,-133.4231 590.0245,-132.4277 583.8309,-135.0526 588.5579,-136.682 588.5579,-136.682 588.5579,-136.682 583.8309,-135.0526 587.0914,-140.9364 579.1038,-133.4231 579.1038,-133.4231"/>
<text text-anchor="middle" x="670.8972" y="-178" font-family="Helvetica,sans-Serif" font-size="10.00" fill="#000000">&lt;&lt;extend&gt;&gt;</text>
</g>
<!-- A10&#45;&gt;A11 -->
<g id="edge10" class="edge">
<title>A10&#45;&gt;A11</title>
<path fill="none" stroke="#000000" stroke-dasharray="5,2" d="M594.4055,-231.4322C638.4981,-226.1056 699.9847,-218.6776 741.8303,-213.6224"/>
<polygon fill="#000000" stroke="#000000" points="584.4358,-232.6366 593.8239,-226.9697 589.3997,-232.0369 594.3636,-231.4372 594.3636,-231.4372 594.3636,-231.4372 589.3997,-232.0369 594.9034,-235.9047 584.4358,-232.6366 584.4358,-232.6366"/>
<text text-anchor="middle" x="670.8972" y="-227" font-family="Helvetica,sans-Serif" font-size="10.00" fill="#000000">&lt;&lt;extend&gt;&gt;</text>
</g>
<!-- A12&#45;&gt;A11 -->
<g id="edge13" class="edge">
<title>A12&#45;&gt;A11</title>
<path fill="none" stroke="#000000" stroke-dasharray="5,2" d="M610.9288,-187.2785C652.8054,-192.1688 704.6587,-198.2241 741.4725,-202.5232"/>
<polygon fill="#000000" stroke="#000000" points="600.7879,-186.0942 611.2424,-182.7846 605.7541,-186.6742 610.7204,-187.2542 610.7204,-187.2542 610.7204,-187.2542 605.7541,-186.6742 610.1984,-191.7238 600.7879,-186.0942 600.7879,-186.0942"/>
<text text-anchor="middle" x="670.8972" y="-199" font-family="Helvetica,sans-Serif" font-size="10.00" fill="#000000">&lt;&lt;extend&gt;&gt;</text>
</g>
</g>
</svg>
