<?xml version="1.0" encoding="UTF-8" standalone="no"?>
<!DOCTYPE svg PUBLIC "-//W3C//DTD SVG 1.1//EN"
 "http://www.w3.org/Graphics/SVG/1.1/DTD/svg11.dtd">
<!-- Generated by graphviz version 2.40.1 (20161225.0304)
 -->
<!-- Title: G Pages: 1 -->
<svg width="1033pt" height="460pt"
 viewBox="0.00 0.00 1032.56 460.00" xmlns="http://www.w3.org/2000/svg" xmlns:xlink="http://www.w3.org/1999/xlink">
<g id="graph0" class="graph" transform="scale(1 1) rotate(0) translate(4 456)">
<title>G</title>
<polygon fill="#ffffff" stroke="transparent" points="-4,4 -4,-456 1028.5577,-456 1028.5577,4 -4,4"/>
<!-- A0 -->
<g id="node1" class="node">
<title>A0</title>
<polygon fill="none" stroke="#000000" points="115.1438,-182 12.9922,-182 12.9922,-90 121.1438,-90 121.1438,-176 115.1438,-182"/>
<polyline fill="none" stroke="#000000" points="115.1438,-182 115.1438,-176 "/>
<polyline fill="none" stroke="#000000" points="121.1438,-176 115.1438,-176 "/>
<text text-anchor="middle" x="67.068" y="-169" font-family="Helvetica,sans-Serif" font-size="10.00" fill="#000000">Green represents</text>
<text text-anchor="middle" x="67.068" y="-157" font-family="Helvetica,sans-Serif" font-size="10.00" fill="#000000">finished features,</text>
<text text-anchor="middle" x="67.068" y="-145" font-family="Helvetica,sans-Serif" font-size="10.00" fill="#000000">blue represents</text>
<text text-anchor="middle" x="67.068" y="-133" font-family="Helvetica,sans-Serif" font-size="10.00" fill="#000000">currently in</text>
<text text-anchor="middle" x="67.068" y="-121" font-family="Helvetica,sans-Serif" font-size="10.00" fill="#000000">progress features,</text>
<text text-anchor="middle" x="67.068" y="-109" font-family="Helvetica,sans-Serif" font-size="10.00" fill="#000000">yellow represents</text>
<text text-anchor="middle" x="67.068" y="-97" font-family="Helvetica,sans-Serif" font-size="10.00" fill="#000000">started features</text>
</g>
<!-- A1 -->
<g id="node2" class="node">
<title>A1</title>
<g transform="translate(67.068,-233)" style="fill:none;stroke:black;stroke-width:1px"><circle cx="0" cy="-20" r="7.5" />
                <line x1="0" y1="-12.5" x2="0" y2="5" />
                <line x1="-15" y1="-5" x2="15" y2="-5" />
                <line x1="0" y1="5" x2="-15" y2="17" />
                <line x1="0" y1="5" x2="15" y2="17" /></g>
<text text-anchor="middle" x="67.068" y="-208" font-family="Helvetica,sans-Serif" font-size="10.00" fill="#000000">House Organizer</text>
</g>
<!-- A2 -->
<g id="node3" class="node">
<title>A2</title>
<g transform="translate(472.3359,-377)" style="fill:none;stroke:black;stroke-width:1px"><circle cx="0" cy="-20" r="7.5" />
                <line x1="0" y1="-12.5" x2="0" y2="5" />
                <line x1="-15" y1="-5" x2="15" y2="-5" />
                <line x1="0" y1="5" x2="-15" y2="17" />
                <line x1="0" y1="5" x2="15" y2="17" /></g>
<text text-anchor="middle" x="472.3359" y="-352" font-family="Helvetica,sans-Serif" font-size="10.00" fill="#000000">Dishwasher</text>
</g>
<!-- A1&#45;&gt;A2 -->
<g id="edge1" class="edge">
<title>A1&#45;&gt;A2</title>
<path fill="none" stroke="#000000" d="M121.5574,-272.1809C133.9044,-280.3574 146.9637,-288.9883 159.136,-297 170.6686,-304.5906 172.4328,-308.592 185.136,-314 257.7796,-344.9257 347.2075,-362.55 406.7857,-371.6715"/>
<polygon fill="none" stroke="#000000" points="406.4096,-375.1541 416.817,-373.1701 407.4439,-368.2309 406.4096,-375.1541"/>
</g>
<!-- A6 -->
<g id="node7" class="node">
<title>A6</title>
<ellipse fill="none" stroke="#000000" cx="472.3359" cy="-190" rx="60.7155" ry="18"/>
<text text-anchor="middle" x="472.3359" y="-187" font-family="Helvetica,sans-Serif" font-size="10.00" fill="#000000">Add Dishwasher</text>
</g>
<!-- A1&#45;&gt;A6 -->
<g id="edge2" class="edge">
<title>A1&#45;&gt;A6</title>
<path fill="none" stroke="#000000" d="M134.1851,-238.0202C196.5576,-238.6993 291.7854,-236.6745 373.0207,-222 394.2344,-218.1679 417.186,-210.9839 435.6759,-204.3923"/>
</g>
<!-- A7 -->
<g id="node8" class="node">
<title>A7</title>
<ellipse fill="none" stroke="#000000" cx="239.0634" cy="-174" rx="53.8548" ry="18"/>
<text text-anchor="middle" x="239.0634" y="-171" font-family="Helvetica,sans-Serif" font-size="10.00" fill="#000000">Create House</text>
</g>
<!-- A1&#45;&gt;A7 -->
<g id="edge3" class="edge">
<title>A1&#45;&gt;A7</title>
<path fill="none" stroke="#000000" d="M134.5515,-211.6739C157.5149,-203.3962 182.3272,-194.452 202.0109,-187.3565"/>
</g>
<!-- A10 -->
<g id="node11" class="node">
<title>A10</title>
<ellipse fill="none" stroke="#000000" cx="472.3359" cy="-249" rx="70.768" ry="22.7556"/>
<text text-anchor="middle" x="472.3359" y="-252" font-family="Helvetica,sans-Serif" font-size="10.00" fill="#000000">Change order of</text>
<text text-anchor="middle" x="472.3359" y="-240" font-family="Helvetica,sans-Serif" font-size="10.00" fill="#000000">Dishwashers</text>
</g>
<!-- A1&#45;&gt;A10 -->
<g id="edge5" class="edge">
<title>A1&#45;&gt;A10</title>
<path fill="none" stroke="#000000" d="M134.2812,-258.125C196.3154,-275.6923 290.9656,-295.2756 373.0207,-282 391.6741,-278.9821 411.5625,-272.9699 428.6039,-266.8945"/>
</g>
<!-- A15 -->
<g id="node16" class="node">
<title>A15</title>
<ellipse fill="none" stroke="#000000" cx="472.3359" cy="-308" rx="72.0934" ry="18"/>
<text text-anchor="middle" x="472.3359" y="-305" font-family="Helvetica,sans-Serif" font-size="10.00" fill="#000000">Remove Dishwasher</text>
</g>
<!-- A1&#45;&gt;A15 -->
<g id="edge17" class="edge">
<title>A1&#45;&gt;A15</title>
<path fill="none" stroke="#000000" d="M131.5694,-272.0836C148.5152,-280.0159 167.1079,-287.4108 185.136,-292 257.1236,-310.3252 342.4194,-312.7565 401.2531,-311.5773"/>
</g>
<!-- A16 -->
<g id="node17" class="node">
<title>A16</title>
<ellipse fill="none" stroke="#000000" cx="472.3359" cy="-136" rx="60.8972" ry="18"/>
<text text-anchor="middle" x="472.3359" y="-133" font-family="Helvetica,sans-Serif" font-size="10.00" fill="#000000">Set Fine amount</text>
</g>
<!-- A1&#45;&gt;A16 -->
<g id="edge26" class="edge">
<title>A1&#45;&gt;A16</title>
<path fill="none" stroke="#000000" d="M121.9923,-199.946C126.1441,-196.9786 130.2333,-193.9755 134.136,-191 157.9425,-172.8493 158.8454,-161.3179 185.136,-147 239.1794,-117.5678 257.0787,-116.7557 317.9907,-108 342.1997,-104.5201 348.7935,-104.6501 373.0207,-108 393.0732,-110.7727 414.7736,-116.5531 432.7601,-122.1458"/>
</g>
<!-- A17 -->
<g id="node18" class="node">
<title>A17</title>
<ellipse fill="none" stroke="#000000" cx="472.3359" cy="-77" rx="63.3353" ry="22.7556"/>
<text text-anchor="middle" x="472.3359" y="-80" font-family="Helvetica,sans-Serif" font-size="10.00" fill="#000000">Set time to do</text>
<text text-anchor="middle" x="472.3359" y="-68" font-family="Helvetica,sans-Serif" font-size="10.00" fill="#000000">dishes</text>
</g>
<!-- A1&#45;&gt;A17 -->
<g id="edge27" class="edge">
<title>A1&#45;&gt;A17</title>
<path fill="none" stroke="#000000" d="M124.7746,-199.8013C128.0692,-196.9737 131.2216,-194.0334 134.136,-191 164.1329,-159.779 152.0128,-135.8823 185.136,-108 233.7706,-67.0606 255.5606,-66.9931 317.9907,-55 353.4762,-48.1831 393.9249,-54.4588 424.5103,-62.0258"/>
</g>
<!-- A5 -->
<g id="node6" class="node">
<title>A5</title>
<ellipse fill="#ffff00" stroke="#000000" cx="725.3232" cy="-326" rx="55.7116" ry="18"/>
<text text-anchor="middle" x="725.3232" y="-323" font-family="Helvetica,sans-Serif" font-size="10.00" fill="#000000">Lookup House</text>
</g>
<!-- A2&#45;&gt;A5 -->
<g id="edge28" class="edge">
<title>A2&#45;&gt;A5</title>
<path fill="none" stroke="#000000" d="M527.855,-368.1495C573.0903,-358.494 636.2299,-345.0169 678.8328,-335.9233"/>
</g>
<!-- A9 -->
<g id="node10" class="node">
<title>A9</title>
<ellipse fill="none" stroke="#000000" cx="725.3232" cy="-267" rx="56.9519" ry="22.7556"/>
<text text-anchor="middle" x="725.3232" y="-270" font-family="Helvetica,sans-Serif" font-size="10.00" fill="#000000">See current</text>
<text text-anchor="middle" x="725.3232" y="-258" font-family="Helvetica,sans-Serif" font-size="10.00" fill="#000000">Dishwasher</text>
</g>
<!-- A2&#45;&gt;A9 -->
<g id="edge4" class="edge">
<title>A2&#45;&gt;A9</title>
<path fill="none" stroke="#000000" d="M527.9856,-354.6193C563.3523,-338.5504 610.137,-317.4065 651.681,-299 663.0241,-293.9743 675.381,-288.5754 686.6757,-283.6701"/>
</g>
<!-- A12 -->
<g id="node13" class="node">
<title>A12</title>
<ellipse fill="none" stroke="#000000" cx="725.3232" cy="-434" rx="46.4762" ry="18"/>
<text text-anchor="middle" x="725.3232" y="-431" font-family="Helvetica,sans-Serif" font-size="10.00" fill="#000000">View Fines</text>
</g>
<!-- A2&#45;&gt;A12 -->
<g id="edge10" class="edge">
<title>A2&#45;&gt;A12</title>
<path fill="none" stroke="#000000" d="M527.855,-391.8505C575.1266,-401.9406 641.9508,-416.2042 684.4579,-425.2773"/>
</g>
<!-- A14 -->
<g id="node15" class="node">
<title>A14</title>
<ellipse fill="none" stroke="#000000" cx="725.3232" cy="-380" rx="73.7847" ry="18"/>
<text text-anchor="middle" x="725.3232" y="-377" font-family="Helvetica,sans-Serif" font-size="10.00" fill="#000000">See next Dishwasher</text>
</g>
<!-- A2&#45;&gt;A14 -->
<g id="edge13" class="edge">
<title>A2&#45;&gt;A14</title>
<path fill="none" stroke="#000000" d="M527.855,-380C564.0724,-380 611.7669,-380 651.2093,-380"/>
</g>
<!-- A3 -->
<g id="node4" class="node">
<title>A3</title>
<ellipse fill="#006400" stroke="#000000" cx="725.3232" cy="-18" rx="64.9179" ry="18"/>
<text text-anchor="middle" x="725.3232" y="-15" font-family="Helvetica,sans-Serif" font-size="10.00" fill="#ffffff">Login to GroupMe</text>
</g>
<!-- A4 -->
<g id="node5" class="node">
<title>A4</title>
<ellipse fill="#0000ff" stroke="#000000" cx="964.2766" cy="-200" rx="60.063" ry="18"/>
<text text-anchor="middle" x="964.2766" y="-197" font-family="Helvetica,sans-Serif" font-size="10.00" fill="#ffffff">Login to Dishbot</text>
</g>
<!-- A11 -->
<g id="node12" class="node">
<title>A11</title>
<ellipse fill="none" stroke="#000000" cx="725.3232" cy="-200" rx="57.7153" ry="18"/>
<text text-anchor="middle" x="725.3232" y="-197" font-family="Helvetica,sans-Serif" font-size="10.00" fill="#000000">Manage House</text>
</g>
<!-- A6&#45;&gt;A11 -->
<g id="edge7" class="edge">
<title>A6&#45;&gt;A11</title>
<path fill="none" stroke="#000000" stroke-dasharray="5,2" d="M543.4192,-190.6176C569.6026,-191.0464 599.4993,-191.7722 626.681,-193 640.4875,-193.6236 655.3649,-194.5472 669.2744,-195.5205"/>
<polygon fill="#000000" stroke="#000000" points="533.2035,-190.462 543.2709,-186.1149 538.203,-190.5382 543.2024,-190.6144 543.2024,-190.6144 543.2024,-190.6144 538.203,-190.5382 543.1338,-195.1138 533.2035,-190.462 533.2035,-190.462"/>
<text text-anchor="middle" x="599.166" y="-196" font-family="Helvetica,sans-Serif" font-size="10.00" fill="#000000">&lt;&lt;extend&gt;&gt;</text>
</g>
<!-- A7&#45;&gt;A6 -->
<g id="edge23" class="edge">
<title>A7&#45;&gt;A6</title>
<path fill="none" stroke="#000000" stroke-dasharray="5,2" d="M292.9133,-172.6559C317.3929,-172.4935 346.7056,-172.9252 373.0207,-175 385.04,-175.9477 397.8113,-177.4776 410.0518,-179.2061"/>
<polygon fill="#000000" stroke="#000000" points="420.1807,-180.6964 409.6321,-183.6928 415.2339,-179.9686 410.2872,-179.2407 410.2872,-179.2407 410.2872,-179.2407 415.2339,-179.9686 410.9423,-174.7886 420.1807,-180.6964 420.1807,-180.6964"/>
<text text-anchor="middle" x="345.5057" y="-178" font-family="Helvetica,sans-Serif" font-size="10.00" fill="#000000">&lt;&lt;include&gt;&gt;</text>
</g>
<!-- A8 -->
<g id="node9" class="node">
<title>A8</title>
<ellipse fill="#006400" stroke="#000000" cx="472.3359" cy="-18" rx="74.1307" ry="18"/>
<text text-anchor="middle" x="472.3359" y="-15" font-family="Helvetica,sans-Serif" font-size="10.00" fill="#ffffff">See GroupMe groups</text>
</g>
<!-- A7&#45;&gt;A8 -->
<g id="edge15" class="edge">
<title>A7&#45;&gt;A8</title>
<path fill="none" stroke="#000000" stroke-dasharray="5,2" d="M261.694,-149.0392C276.8477,-133.0002 297.6726,-112.2108 317.9907,-96 350.9602,-69.6953 360.189,-63.6462 398.0207,-45 407.3785,-40.3879 417.7298,-36.1345 427.66,-32.4335"/>
<polygon fill="#000000" stroke="#000000" points="254.7375,-156.4903 258.2725,-146.1098 258.1497,-152.8355 261.5618,-149.1807 261.5618,-149.1807 261.5618,-149.1807 258.1497,-152.8355 264.8511,-152.2517 254.7375,-156.4903 254.7375,-156.4903"/>
<text text-anchor="middle" x="345.5057" y="-99" font-family="Helvetica,sans-Serif" font-size="10.00" fill="#000000">&lt;&lt;extend&gt;&gt;</text>
</g>
<!-- A7&#45;&gt;A10 -->
<g id="edge25" class="edge">
<title>A7&#45;&gt;A10</title>
<path fill="none" stroke="#000000" stroke-dasharray="5,2" d="M278.1079,-186.5533C314.808,-198.3529 370.2656,-216.1831 412.5387,-229.7745"/>
<polygon fill="#000000" stroke="#000000" points="422.1621,-232.8685 411.2647,-234.0917 417.4021,-231.3381 412.6421,-229.8076 412.6421,-229.8076 412.6421,-229.8076 417.4021,-231.3381 414.0195,-225.5236 422.1621,-232.8685 422.1621,-232.8685"/>
<text text-anchor="middle" x="345.5057" y="-219" font-family="Helvetica,sans-Serif" font-size="10.00" fill="#000000">&lt;&lt;include&gt;&gt;</text>
</g>
<!-- A7&#45;&gt;A15 -->
<g id="edge24" class="edge">
<title>A7&#45;&gt;A15</title>
<path fill="none" stroke="#000000" stroke-dasharray="5,2" d="M259.9782,-190.979C289.2924,-214.077 344.9737,-255.4446 398.0207,-281 404.5674,-284.1539 411.5844,-287.1579 418.5971,-289.9393"/>
<polygon fill="#000000" stroke="#000000" points="428.1128,-293.5871 417.1646,-294.2094 423.4441,-291.7973 418.7754,-290.0075 418.7754,-290.0075 418.7754,-290.0075 423.4441,-291.7973 420.3862,-285.8057 428.1128,-293.5871 428.1128,-293.5871"/>
<text text-anchor="middle" x="345.5057" y="-270" font-family="Helvetica,sans-Serif" font-size="10.00" fill="#000000">&lt;&lt;include&gt;&gt;</text>
</g>
<!-- A7&#45;&gt;A16 -->
<g id="edge21" class="edge">
<title>A7&#45;&gt;A16</title>
<path fill="none" stroke="#000000" stroke-dasharray="5,2" d="M283.6088,-163.7794C294.8,-161.3845 306.8079,-158.9621 317.9907,-157 346.4512,-152.0064 378.042,-147.523 405.192,-143.9937"/>
<polygon fill="#000000" stroke="#000000" points="415.3643,-142.6887 406.0182,-148.4247 410.4049,-143.325 405.4455,-143.9613 405.4455,-143.9613 405.4455,-143.9613 410.4049,-143.325 404.8729,-139.4978 415.3643,-142.6887 415.3643,-142.6887"/>
<text text-anchor="middle" x="345.5057" y="-160" font-family="Helvetica,sans-Serif" font-size="10.00" fill="#000000">&lt;&lt;include&gt;&gt;</text>
</g>
<!-- A7&#45;&gt;A17 -->
<g id="edge22" class="edge">
<title>A7&#45;&gt;A17</title>
<path fill="none" stroke="#000000" stroke-dasharray="5,2" d="M266.7558,-158.4801C281.6996,-150.3959 300.5994,-140.6329 317.9907,-133 349.6496,-119.1053 385.9557,-105.8064 415.3989,-95.6576"/>
<polygon fill="#000000" stroke="#000000" points="425.1042,-92.3403 417.0972,-99.8328 420.373,-93.9575 415.6417,-95.5747 415.6417,-95.5747 415.6417,-95.5747 420.373,-93.9575 414.1863,-91.3165 425.1042,-92.3403 425.1042,-92.3403"/>
<text text-anchor="middle" x="345.5057" y="-136" font-family="Helvetica,sans-Serif" font-size="10.00" fill="#000000">&lt;&lt;include&gt;&gt;</text>
</g>
<!-- A8&#45;&gt;A3 -->
<g id="edge14" class="edge">
<title>A8&#45;&gt;A3</title>
<path fill="none" stroke="#000000" stroke-dasharray="5,2" d="M546.8721,-18C579.3571,-18 617.3757,-18 649.9543,-18"/>
<polygon fill="#000000" stroke="#000000" points="660.3268,-18 650.3268,-22.5001 655.3268,-18 650.3268,-18.0001 650.3268,-18.0001 650.3268,-18.0001 655.3268,-18 650.3267,-13.5001 660.3268,-18 660.3268,-18"/>
<text text-anchor="middle" x="599.166" y="-21" font-family="Helvetica,sans-Serif" font-size="10.00" fill="#000000">&lt;&lt;include&gt;&gt;</text>
</g>
<!-- A13 -->
<g id="node14" class="node">
<title>A13</title>
<ellipse fill="#ffff00" stroke="#000000" cx="964.2766" cy="-318" rx="48.827" ry="18"/>
<text text-anchor="middle" x="964.2766" y="-315" font-family="Helvetica,sans-Serif" font-size="10.00" fill="#000000">View House</text>
</g>
<!-- A9&#45;&gt;A13 -->
<g id="edge11" class="edge">
<title>A9&#45;&gt;A13</title>
<path fill="none" stroke="#000000" stroke-dasharray="5,2" d="M785.3674,-279.8153C827.894,-288.8918 883.8993,-300.845 921.8372,-308.9421"/>
<polygon fill="#000000" stroke="#000000" points="775.4157,-277.6913 786.1347,-275.3778 780.3056,-278.735 785.1954,-279.7786 785.1954,-279.7786 785.1954,-279.7786 780.3056,-278.735 784.2561,-284.1795 775.4157,-277.6913 775.4157,-277.6913"/>
<text text-anchor="middle" x="851.4805" y="-301" font-family="Helvetica,sans-Serif" font-size="10.00" fill="#000000">&lt;&lt;extend&gt;&gt;</text>
</g>
<!-- A10&#45;&gt;A11 -->
<g id="edge6" class="edge">
<title>A10&#45;&gt;A11</title>
<path fill="none" stroke="#000000" stroke-dasharray="5,2" d="M543.214,-235.2719C585.5085,-227.0801 638.1605,-216.8822 675.9553,-209.5619"/>
<polygon fill="#000000" stroke="#000000" points="533.2546,-237.2009 542.2164,-230.8814 538.1634,-236.2501 543.0721,-235.2993 543.0721,-235.2993 543.0721,-235.2993 538.1634,-236.2501 543.9279,-239.7172 533.2546,-237.2009 533.2546,-237.2009"/>
<text text-anchor="middle" x="599.166" y="-232" font-family="Helvetica,sans-Serif" font-size="10.00" fill="#000000">&lt;&lt;extend&gt;&gt;</text>
</g>
<!-- A11&#45;&gt;A4 -->
<g id="edge8" class="edge">
<title>A11&#45;&gt;A4</title>
<path fill="none" stroke="#000000" stroke-dasharray="5,2" d="M783.1672,-200C816.3555,-200 858.2812,-200 893.4339,-200"/>
<polygon fill="#000000" stroke="#000000" points="903.631,-200 893.6311,-204.5001 898.631,-200 893.631,-200.0001 893.631,-200.0001 893.631,-200.0001 898.631,-200 893.631,-195.5001 903.631,-200 903.631,-200"/>
<text text-anchor="middle" x="851.4805" y="-203" font-family="Helvetica,sans-Serif" font-size="10.00" fill="#000000">&lt;&lt;include&gt;&gt;</text>
</g>
<!-- A11&#45;&gt;A13 -->
<g id="edge16" class="edge">
<title>A11&#45;&gt;A13</title>
<path fill="none" stroke="#000000" stroke-dasharray="5,2" d="M767.1118,-219.272C798.1464,-233.7246 841.4235,-254.1736 878.9955,-273 898.4522,-282.7493 920.14,-294.2013 936.7754,-303.1126"/>
<polygon fill="#000000" stroke="#000000" points="757.8932,-214.9876 768.8583,-215.1215 762.4275,-217.095 766.9617,-219.2023 766.9617,-219.2023 766.9617,-219.2023 762.4275,-217.095 765.0651,-223.2831 757.8932,-214.9876 757.8932,-214.9876"/>
<text text-anchor="middle" x="851.4805" y="-276" font-family="Helvetica,sans-Serif" font-size="10.00" fill="#000000">&lt;&lt;extend&gt;&gt;</text>
</g>
<!-- A12&#45;&gt;A13 -->
<g id="edge9" class="edge">
<title>A12&#45;&gt;A13</title>
<path fill="none" stroke="#000000" stroke-dasharray="5,2" d="M769.6141,-418.5932C779.3566,-414.9737 789.5684,-411 798.9655,-407 835.372,-391.503 844.1185,-386.6866 878.9955,-368 899.4186,-357.0576 922.0176,-343.7514 938.8182,-333.6175"/>
<polygon fill="#000000" stroke="#000000" points="760.0756,-422.0824 767.921,-414.4208 764.7713,-420.3647 769.467,-418.6469 769.467,-418.6469 769.467,-418.6469 764.7713,-420.3647 771.0129,-422.8731 760.0756,-422.0824 760.0756,-422.0824"/>
<text text-anchor="middle" x="851.4805" y="-398" font-family="Helvetica,sans-Serif" font-size="10.00" fill="#000000">&lt;&lt;extend&gt;&gt;</text>
</g>
<!-- A14&#45;&gt;A13 -->
<g id="edge12" class="edge">
<title>A14&#45;&gt;A13</title>
<path fill="none" stroke="#000000" stroke-dasharray="5,2" d="M785.8445,-364.2969C829.1148,-353.0697 886.1525,-338.2705 923.961,-328.4605"/>
<polygon fill="#000000" stroke="#000000" points="775.9991,-366.8514 784.5484,-359.9841 780.8388,-365.5956 785.6786,-364.3398 785.6786,-364.3398 785.6786,-364.3398 780.8388,-365.5956 786.8088,-368.6956 775.9991,-366.8514 775.9991,-366.8514"/>
<text text-anchor="middle" x="851.4805" y="-355" font-family="Helvetica,sans-Serif" font-size="10.00" fill="#000000">&lt;&lt;extend&gt;&gt;</text>
</g>
<!-- A15&#45;&gt;A11 -->
<g id="edge18" class="edge">
<title>A15&#45;&gt;A11</title>
<path fill="none" stroke="#000000" stroke-dasharray="5,2" d="M524.1151,-289.7474C531.7081,-286.9089 539.4071,-283.9405 546.651,-281 598.8785,-259.7997 658.2521,-232.1574 693.7041,-215.2629"/>
<polygon fill="#000000" stroke="#000000" points="514.5963,-293.2614 522.419,-285.5766 519.2869,-291.5298 523.9775,-289.7982 523.9775,-289.7982 523.9775,-289.7982 519.2869,-291.5298 525.5359,-294.0197 514.5963,-293.2614 514.5963,-293.2614"/>
<text text-anchor="middle" x="599.166" y="-272" font-family="Helvetica,sans-Serif" font-size="10.00" fill="#000000">&lt;&lt;extend&gt;&gt;</text>
</g>
<!-- A16&#45;&gt;A11 -->
<g id="edge19" class="edge">
<title>A16&#45;&gt;A11</title>
<path fill="none" stroke="#000000" stroke-dasharray="5,2" d="M528.5087,-150.2104C574.2896,-161.7919 638.0833,-177.9303 680.4903,-188.6583"/>
<polygon fill="#000000" stroke="#000000" points="518.7377,-147.7386 529.5359,-145.8286 523.585,-148.9649 528.4323,-150.1912 528.4323,-150.1912 528.4323,-150.1912 523.585,-148.9649 527.3286,-154.5537 518.7377,-147.7386 518.7377,-147.7386"/>
<text text-anchor="middle" x="599.166" y="-177" font-family="Helvetica,sans-Serif" font-size="10.00" fill="#000000">&lt;&lt;extend&gt;&gt;</text>
</g>
<!-- A17&#45;&gt;A11 -->
<g id="edge20" class="edge">
<title>A17&#45;&gt;A11</title>
<path fill="none" stroke="#000000" stroke-dasharray="5,2" d="M522.6646,-98.3747C530.7087,-101.8763 538.9243,-105.5035 546.651,-109 582.5238,-125.2334 591.543,-129.2319 626.681,-147 650.6225,-159.1064 677.4163,-173.5617 697.0302,-184.3156"/>
<polygon fill="#000000" stroke="#000000" points="513.3398,-94.337 524.3045,-94.1811 517.9281,-96.3238 522.5164,-98.3106 522.5164,-98.3106 522.5164,-98.3106 517.9281,-96.3238 520.7283,-102.4401 513.3398,-94.337 513.3398,-94.337"/>
<text text-anchor="middle" x="599.166" y="-150" font-family="Helvetica,sans-Serif" font-size="10.00" fill="#000000">&lt;&lt;extend&gt;&gt;</text>
</g>
</g>
</svg>
