<?xml version="1.0" encoding="UTF-8" standalone="no"?>
<!DOCTYPE svg PUBLIC "-//W3C//DTD SVG 1.1//EN"
 "http://www.w3.org/Graphics/SVG/1.1/DTD/svg11.dtd">
<!-- Generated by graphviz version 2.40.1 (20161225.0304)
 -->
<!-- Title: G Pages: 1 -->
<svg width="861pt" height="358pt"
 viewBox="0.00 0.00 861.33 357.63" xmlns="http://www.w3.org/2000/svg" xmlns:xlink="http://www.w3.org/1999/xlink">
<g id="graph0" class="graph" transform="scale(1 1) rotate(0) translate(4 353.6274)">
<title>G</title>
<polygon fill="#ffffff" stroke="transparent" points="-4,4 -4,-353.6274 857.33,-353.6274 857.33,4 -4,4"/>
<!-- A0 -->
<g id="node1" class="node">
<title>A0</title>
<g transform="translate(67.068,-137.6274)" style="fill:none;stroke:black;stroke-width:1px"><circle cx="0" cy="-20" r="7.5" />
                <line x1="0" y1="-12.5" x2="0" y2="5" />
                <line x1="-15" y1="-5" x2="15" y2="-5" />
                <line x1="0" y1="5" x2="-15" y2="17" />
                <line x1="0" y1="5" x2="15" y2="17" /></g>
<text text-anchor="middle" x="67.068" y="-112.6274" font-family="Helvetica,sans-Serif" font-size="10.00" fill="#000000">House Organizer</text>
</g>
<!-- A1 -->
<g id="node2" class="node">
<title>A1</title>
<g transform="translate(271.7304,-277.6274)" style="fill:none;stroke:black;stroke-width:1px"><circle cx="0" cy="-20" r="7.5" />
                <line x1="0" y1="-12.5" x2="0" y2="5" />
                <line x1="-15" y1="-5" x2="15" y2="-5" />
                <line x1="0" y1="5" x2="-15" y2="17" />
                <line x1="0" y1="5" x2="15" y2="17" /></g>
<text text-anchor="middle" x="271.7304" y="-252.62740000000002" font-family="Helvetica,sans-Serif" font-size="10.00" fill="#000000">Dishwasher</text>
</g>
<!-- A0&#45;&gt;A1 -->
<g id="edge1" class="edge">
<title>A0&#45;&gt;A1</title>
<path fill="none" stroke="#000000" d="M107.8879,-176.8126C129.955,-195.4983 158.1495,-218.0082 185.136,-235.6274 192.1717,-240.2209 199.7312,-244.7235 207.3476,-248.998"/>
<polygon fill="none" stroke="#000000" points="205.8361,-252.1608 216.2867,-253.9029 209.2034,-246.024 205.8361,-252.1608"/>
</g>
<!-- A4 -->
<g id="node5" class="node">
<title>A4</title>
<ellipse fill="none" stroke="#000000" cx="271.7304" cy="-203.6274" rx="86.6889" ry="22.7556"/>
<text text-anchor="middle" x="271.7304" y="-206.6274" font-family="Helvetica,sans-Serif" font-size="10.00" fill="#000000">Adding a Dishwasher</text>
<text text-anchor="middle" x="271.7304" y="-194.6274" font-family="Helvetica,sans-Serif" font-size="10.00" fill="#000000">to a House</text>
</g>
<!-- A0&#45;&gt;A4 -->
<g id="edge2" class="edge">
<title>A0&#45;&gt;A4</title>
<path fill="none" stroke="#000000" d="M134.3656,-161.3432C160.696,-169.4484 190.5457,-178.6368 215.6776,-186.373"/>
</g>
<!-- A5 -->
<g id="node6" class="node">
<title>A5</title>
<ellipse fill="none" stroke="#000000" cx="271.7304" cy="-22.6274" rx="85.3258" ry="22.7556"/>
<text text-anchor="middle" x="271.7304" y="-25.6274" font-family="Helvetica,sans-Serif" font-size="10.00" fill="#000000">Create a House from</text>
<text text-anchor="middle" x="271.7304" y="-13.6274" font-family="Helvetica,sans-Serif" font-size="10.00" fill="#000000">a GroupMe group</text>
</g>
<!-- A0&#45;&gt;A5 -->
<g id="edge3" class="edge">
<title>A0&#45;&gt;A5</title>
<path fill="none" stroke="#000000" d="M110.5609,-104.4886C132.0721,-87.8042 158.9815,-68.6368 185.136,-54.6274 195.1671,-49.2544 206.2948,-44.4003 217.1394,-40.1905"/>
</g>
<!-- A8 -->
<g id="node9" class="node">
<title>A8</title>
<ellipse fill="none" stroke="#000000" cx="271.7304" cy="-140.6274" rx="70.768" ry="22.7556"/>
<text text-anchor="middle" x="271.7304" y="-143.6274" font-family="Helvetica,sans-Serif" font-size="10.00" fill="#000000">Change order of</text>
<text text-anchor="middle" x="271.7304" y="-131.6274" font-family="Helvetica,sans-Serif" font-size="10.00" fill="#000000">Dishwashers</text>
</g>
<!-- A0&#45;&gt;A8 -->
<g id="edge6" class="edge">
<title>A0&#45;&gt;A8</title>
<path fill="none" stroke="#000000" d="M134.3656,-140.6274C155.5697,-140.6274 179.0562,-140.6274 200.5231,-140.6274"/>
</g>
<!-- A13 -->
<g id="node14" class="node">
<title>A13</title>
<ellipse fill="none" stroke="#000000" cx="271.7304" cy="-81.6274" rx="72.0934" ry="18"/>
<text text-anchor="middle" x="271.7304" y="-78.6274" font-family="Helvetica,sans-Serif" font-size="10.00" fill="#000000">Remove Dishwasher</text>
</g>
<!-- A0&#45;&gt;A13 -->
<g id="edge18" class="edge">
<title>A0&#45;&gt;A13</title>
<path fill="none" stroke="#000000" d="M134.3656,-121.2269C163.8417,-112.7295 197.7282,-102.9608 224.469,-95.2519"/>
</g>
<!-- A7 -->
<g id="node8" class="node">
<title>A7</title>
<ellipse fill="none" stroke="#000000" cx="540.039" cy="-209.6274" rx="78.1867" ry="22.7556"/>
<text text-anchor="middle" x="540.039" y="-212.6274" font-family="Helvetica,sans-Serif" font-size="10.00" fill="#000000">See who is current</text>
<text text-anchor="middle" x="540.039" y="-200.6274" font-family="Helvetica,sans-Serif" font-size="10.00" fill="#000000">Dishwasher</text>
</g>
<!-- A1&#45;&gt;A7 -->
<g id="edge4" class="edge">
<title>A1&#45;&gt;A7</title>
<path fill="none" stroke="#000000" d="M327.3241,-265.9162C372.605,-253.9339 436.3226,-237.0729 482.1994,-224.933"/>
</g>
<!-- A10 -->
<g id="node11" class="node">
<title>A10</title>
<ellipse fill="none" stroke="#000000" cx="540.039" cy="-331.6274" rx="46.4762" ry="18"/>
<text text-anchor="middle" x="540.039" y="-328.6274" font-family="Helvetica,sans-Serif" font-size="10.00" fill="#000000">View Fines</text>
</g>
<!-- A1&#45;&gt;A10 -->
<g id="edge11" class="edge">
<title>A1&#45;&gt;A10</title>
<path fill="none" stroke="#000000" d="M327.3241,-291.1946C378.1309,-300.852 452.1486,-314.9212 498.1319,-323.6617"/>
</g>
<!-- A12 -->
<g id="node13" class="node">
<title>A12</title>
<ellipse fill="none" stroke="#000000" cx="540.039" cy="-272.6274" rx="63.591" ry="22.7556"/>
<text text-anchor="middle" x="540.039" y="-275.6274" font-family="Helvetica,sans-Serif" font-size="10.00" fill="#000000">See who next</text>
<text text-anchor="middle" x="540.039" y="-263.6274" font-family="Helvetica,sans-Serif" font-size="10.00" fill="#000000">Dishwasher is</text>
</g>
<!-- A1&#45;&gt;A12 -->
<g id="edge14" class="edge">
<title>A1&#45;&gt;A12</title>
<path fill="none" stroke="#000000" d="M327.3241,-278.9698C370.6096,-277.6792 430.7426,-275.8862 476.0335,-274.5358"/>
</g>
<!-- A2 -->
<g id="node3" class="node">
<title>A2</title>
<ellipse fill="none" stroke="#000000" cx="788.3711" cy="-20.6274" rx="64.9179" ry="18"/>
<text text-anchor="middle" x="788.3711" y="-17.6274" font-family="Helvetica,sans-Serif" font-size="10.00" fill="#000000">Login to GroupMe</text>
</g>
<!-- A3 -->
<g id="node4" class="node">
<title>A3</title>
<ellipse fill="none" stroke="#000000" cx="788.3711" cy="-100.6274" rx="60.063" ry="18"/>
<text text-anchor="middle" x="788.3711" y="-97.6274" font-family="Helvetica,sans-Serif" font-size="10.00" fill="#000000">Login to Dishbot</text>
</g>
<!-- A9 -->
<g id="node10" class="node">
<title>A9</title>
<ellipse fill="none" stroke="#000000" cx="540.039" cy="-142.6274" rx="57.7153" ry="18"/>
<text text-anchor="middle" x="540.039" y="-139.6274" font-family="Helvetica,sans-Serif" font-size="10.00" fill="#000000">Manage House</text>
</g>
<!-- A4&#45;&gt;A9 -->
<g id="edge8" class="edge">
<title>A4&#45;&gt;A9</title>
<path fill="none" stroke="#000000" stroke-dasharray="5,2" d="M347.1811,-186.4737C394.076,-175.8121 452.8922,-162.4403 493.1654,-153.2841"/>
<polygon fill="#000000" stroke="#000000" points="337.3661,-188.7051 346.1196,-182.1001 342.2417,-187.5966 347.1173,-186.4881 347.1173,-186.4881 347.1173,-186.4881 342.2417,-187.5966 348.1149,-190.8762 337.3661,-188.7051 337.3661,-188.7051"/>
<text text-anchor="middle" x="410.0103" y="-180.6274" font-family="Helvetica,sans-Serif" font-size="10.00" fill="#000000">&lt;&lt;extend&gt;&gt;</text>
</g>
<!-- A5&#45;&gt;A3 -->
<g id="edge5" class="edge">
<title>A5&#45;&gt;A3</title>
<path fill="none" stroke="#000000" stroke-dasharray="5,2" d="M346.0274,-33.8444C447.5957,-49.1787 628.1102,-76.432 724.1333,-90.9291"/>
<polygon fill="#000000" stroke="#000000" points="734.2854,-92.4618 723.7256,-95.4185 729.3414,-91.7153 724.3974,-90.9689 724.3974,-90.9689 724.3974,-90.9689 729.3414,-91.7153 725.0692,-86.5193 734.2854,-92.4618 734.2854,-92.4618"/>
<text text-anchor="middle" x="540.039" y="-77.6274" font-family="Helvetica,sans-Serif" font-size="10.00" fill="#000000">&lt;&lt;include&gt;&gt;</text>
</g>
<!-- A6 -->
<g id="node7" class="node">
<title>A6</title>
<ellipse fill="none" stroke="#000000" cx="540.039" cy="-20.6274" rx="74.1307" ry="18"/>
<text text-anchor="middle" x="540.039" y="-17.6274" font-family="Helvetica,sans-Serif" font-size="10.00" fill="#000000">See GroupMe groups</text>
</g>
<!-- A5&#45;&gt;A6 -->
<g id="edge16" class="edge">
<title>A5&#45;&gt;A6</title>
<path fill="none" stroke="#000000" stroke-dasharray="5,2" d="M367.6956,-21.9121C399.9,-21.672 435.3075,-21.4081 465.6077,-21.1822"/>
<polygon fill="#000000" stroke="#000000" points="357.3626,-21.9891 367.3288,-17.4146 362.3625,-21.9518 367.3624,-21.9145 367.3624,-21.9145 367.3624,-21.9145 362.3625,-21.9518 367.3959,-26.4143 357.3626,-21.9891 357.3626,-21.9891"/>
<text text-anchor="middle" x="410.0103" y="-25.6274" font-family="Helvetica,sans-Serif" font-size="10.00" fill="#000000">&lt;&lt;extend&gt;&gt;</text>
</g>
<!-- A6&#45;&gt;A2 -->
<g id="edge15" class="edge">
<title>A6&#45;&gt;A2</title>
<path fill="none" stroke="#000000" stroke-dasharray="5,2" d="M614.5468,-20.6274C645.6092,-20.6274 681.6358,-20.6274 712.809,-20.6274"/>
<polygon fill="#000000" stroke="#000000" points="723.1806,-20.6274 713.1806,-25.1275 718.1806,-20.6275 713.1806,-20.6275 713.1806,-20.6275 713.1806,-20.6275 718.1806,-20.6275 713.1805,-16.1275 723.1806,-20.6274 723.1806,-20.6274"/>
<text text-anchor="middle" x="670.8972" y="-23.6274" font-family="Helvetica,sans-Serif" font-size="10.00" fill="#000000">&lt;&lt;include&gt;&gt;</text>
</g>
<!-- A11 -->
<g id="node12" class="node">
<title>A11</title>
<ellipse fill="none" stroke="#000000" cx="788.3711" cy="-240.6274" rx="48.827" ry="18"/>
<text text-anchor="middle" x="788.3711" y="-237.6274" font-family="Helvetica,sans-Serif" font-size="10.00" fill="#000000">View House</text>
</g>
<!-- A7&#45;&gt;A11 -->
<g id="edge12" class="edge">
<title>A7&#45;&gt;A11</title>
<path fill="none" stroke="#000000" stroke-dasharray="5,2" d="M622.1652,-219.8795C661.9594,-224.8471 708.2856,-230.6301 741.9053,-234.827"/>
<polygon fill="#000000" stroke="#000000" points="612.2005,-218.6355 622.681,-215.409 617.162,-219.2549 622.1235,-219.8743 622.1235,-219.8743 622.1235,-219.8743 617.162,-219.2549 621.5661,-224.3397 612.2005,-218.6355 612.2005,-218.6355"/>
<text text-anchor="middle" x="670.8972" y="-232.6274" font-family="Helvetica,sans-Serif" font-size="10.00" fill="#000000">&lt;&lt;extend&gt;&gt;</text>
</g>
<!-- A8&#45;&gt;A9 -->
<g id="edge7" class="edge">
<title>A8&#45;&gt;A9</title>
<path fill="none" stroke="#000000" stroke-dasharray="5,2" d="M353.0486,-141.2336C394.6759,-141.5439 444.3811,-141.9144 482.0782,-142.1954"/>
<polygon fill="#000000" stroke="#000000" points="342.9278,-141.1581 352.9611,-136.7329 347.9276,-141.1954 352.9275,-141.2328 352.9275,-141.2328 352.9275,-141.2328 347.9276,-141.1954 352.8939,-145.7326 342.9278,-141.1581 342.9278,-141.1581"/>
<text text-anchor="middle" x="410.0103" y="-145.6274" font-family="Helvetica,sans-Serif" font-size="10.00" fill="#000000">&lt;&lt;extend&gt;&gt;</text>
</g>
<!-- A9&#45;&gt;A3 -->
<g id="edge9" class="edge">
<title>A9&#45;&gt;A3</title>
<path fill="none" stroke="#000000" stroke-dasharray="5,2" d="M590.892,-134.0267C629.9572,-127.4197 684.1067,-118.2615 725.8244,-111.2058"/>
<polygon fill="#000000" stroke="#000000" points="735.8747,-109.5061 726.7651,-115.6107 730.9447,-110.3399 726.0147,-111.1737 726.0147,-111.1737 726.0147,-111.1737 730.9447,-110.3399 725.2642,-106.7368 735.8747,-109.5061 735.8747,-109.5061"/>
<text text-anchor="middle" x="670.8972" y="-127.6274" font-family="Helvetica,sans-Serif" font-size="10.00" fill="#000000">&lt;&lt;include&gt;&gt;</text>
</g>
<!-- A9&#45;&gt;A11 -->
<g id="edge17" class="edge">
<title>A9&#45;&gt;A11</title>
<path fill="none" stroke="#000000" stroke-dasharray="5,2" d="M585.2832,-160.4823C634.2363,-179.8008 711.1425,-210.1504 754.9238,-227.428"/>
<polygon fill="#000000" stroke="#000000" points="575.8834,-156.7728 586.8372,-156.2578 580.5344,-158.6082 585.1853,-160.4437 585.1853,-160.4437 585.1853,-160.4437 580.5344,-158.6082 583.5334,-164.6295 575.8834,-156.7728 575.8834,-156.7728"/>
<text text-anchor="middle" x="670.8972" y="-206.6274" font-family="Helvetica,sans-Serif" font-size="10.00" fill="#000000">&lt;&lt;extend&gt;&gt;</text>
</g>
<!-- A10&#45;&gt;A11 -->
<g id="edge10" class="edge">
<title>A10&#45;&gt;A11</title>
<path fill="none" stroke="#000000" stroke-dasharray="5,2" d="M584.6792,-316.4862C595.7162,-312.6756 607.4959,-308.5518 618.3822,-304.6274 665.8472,-287.517 720.3829,-266.7946 754.6099,-253.6589"/>
<polygon fill="#000000" stroke="#000000" points="575.2124,-319.7413 583.2057,-312.2341 579.9407,-318.1154 584.669,-316.4896 584.669,-316.4896 584.669,-316.4896 579.9407,-318.1154 586.1322,-320.7451 575.2124,-319.7413 575.2124,-319.7413"/>
<text text-anchor="middle" x="670.8972" y="-296.6274" font-family="Helvetica,sans-Serif" font-size="10.00" fill="#000000">&lt;&lt;extend&gt;&gt;</text>
</g>
<!-- A12&#45;&gt;A11 -->
<g id="edge13" class="edge">
<title>A12&#45;&gt;A11</title>
<path fill="none" stroke="#000000" stroke-dasharray="5,2" d="M610.0963,-263.5999C652.3259,-258.1582 704.9363,-251.3788 742.0258,-246.5995"/>
<polygon fill="#000000" stroke="#000000" points="600.1533,-264.8811 609.4961,-259.1399 605.1123,-264.2421 610.0713,-263.603 610.0713,-263.603 610.0713,-263.603 605.1123,-264.2421 610.6464,-268.0661 600.1533,-264.8811 600.1533,-264.8811"/>
<text text-anchor="middle" x="670.8972" y="-260.6274" font-family="Helvetica,sans-Serif" font-size="10.00" fill="#000000">&lt;&lt;extend&gt;&gt;</text>
</g>
<!-- A13&#45;&gt;A9 -->
<g id="edge19" class="edge">
<title>A13&#45;&gt;A9</title>
<path fill="none" stroke="#000000" stroke-dasharray="5,2" d="M335.1454,-96.0448C383.6373,-107.0695 449.4006,-122.0208 493.2038,-131.9794"/>
<polygon fill="#000000" stroke="#000000" points="325.3818,-93.8251 336.1306,-91.654 330.2574,-94.9336 335.133,-96.0421 335.133,-96.0421 335.133,-96.0421 330.2574,-94.9336 334.1353,-100.4301 325.3818,-93.8251 325.3818,-93.8251"/>
<text text-anchor="middle" x="410.0103" y="-120.6274" font-family="Helvetica,sans-Serif" font-size="10.00" fill="#000000">&lt;&lt;extend&gt;&gt;</text>
</g>
</g>
</svg>
