<?xml version="1.0" encoding="UTF-8" standalone="no"?>
<!DOCTYPE svg PUBLIC "-//W3C//DTD SVG 1.1//EN"
 "http://www.w3.org/Graphics/SVG/1.1/DTD/svg11.dtd">
<!-- Generated by graphviz version 2.40.1 (20161225.0304)
 -->
<!-- Title: G Pages: 1 -->
<svg width="1122pt" height="476pt"
 viewBox="0.00 0.00 1122.12 475.63" xmlns="http://www.w3.org/2000/svg" xmlns:xlink="http://www.w3.org/1999/xlink">
<g id="graph0" class="graph" transform="scale(1 1) rotate(0) translate(4 471.6274)">
<title>G</title>
<polygon fill="#ffffff" stroke="transparent" points="-4,4 -4,-471.6274 1118.1206,-471.6274 1118.1206,4 -4,4"/>
<!-- A0 -->
<g id="node1" class="node">
<title>A0</title>
<g transform="translate(67.068,-244)" style="fill:none;stroke:black;stroke-width:1px"><circle cx="0" cy="-20" r="7.5" />
                <line x1="0" y1="-12.5" x2="0" y2="5" />
                <line x1="-15" y1="-5" x2="15" y2="-5" />
                <line x1="0" y1="5" x2="-15" y2="17" />
                <line x1="0" y1="5" x2="15" y2="17" /></g>
<text text-anchor="middle" x="67.068" y="-219" font-family="Helvetica,sans-Serif" font-size="10.00" fill="#000000">House Organizer</text>
</g>
<!-- A1 -->
<g id="node2" class="node">
<title>A1</title>
<g transform="translate(561.8987,-396)" style="fill:none;stroke:black;stroke-width:1px"><circle cx="0" cy="-20" r="7.5" />
                <line x1="0" y1="-12.5" x2="0" y2="5" />
                <line x1="-15" y1="-5" x2="15" y2="-5" />
                <line x1="0" y1="5" x2="-15" y2="17" />
                <line x1="0" y1="5" x2="15" y2="17" /></g>
<text text-anchor="middle" x="561.8987" y="-371" font-family="Helvetica,sans-Serif" font-size="10.00" fill="#000000">Dishwasher</text>
</g>
<!-- A0&#45;&gt;A1 -->
<g id="edge1" class="edge">
<title>A0&#45;&gt;A1</title>
<path fill="none" stroke="#000000" d="M127.9532,-283.0946C146.038,-293.1074 166.1064,-303.541 185.136,-312 242.2346,-337.3814 257.4465,-342.5449 317.9907,-358 377.5437,-373.202 446.7539,-384.222 496.2037,-390.9839"/>
<polygon fill="none" stroke="#000000" points="495.7554,-394.4551 506.133,-392.3208 496.6895,-387.5177 495.7554,-394.4551"/>
</g>
<!-- A4 -->
<g id="node5" class="node">
<title>A4</title>
<ellipse fill="none" stroke="#000000" cx="561.8987" cy="-231" rx="60.7155" ry="18"/>
<text text-anchor="middle" x="561.8987" y="-228" font-family="Helvetica,sans-Serif" font-size="10.00" fill="#000000">Add Dishwasher</text>
</g>
<!-- A0&#45;&gt;A4 -->
<g id="edge2" class="edge">
<title>A0&#45;&gt;A4</title>
<path fill="none" stroke="#000000" d="M134.3181,-244.8255C231.1656,-241.694 408.4541,-235.9615 501.3964,-232.9563"/>
</g>
<!-- A5 -->
<g id="node6" class="node">
<title>A5</title>
<ellipse fill="none" stroke="#000000" cx="239.0634" cy="-129" rx="53.8548" ry="18"/>
<text text-anchor="middle" x="239.0634" y="-126" font-family="Helvetica,sans-Serif" font-size="10.00" fill="#000000">Create House</text>
</g>
<!-- A0&#45;&gt;A5 -->
<g id="edge3" class="edge">
<title>A0&#45;&gt;A5</title>
<path fill="none" stroke="#000000" d="M119.6069,-210.9549C151.4174,-189.1309 190.464,-162.3423 215.0633,-145.4656"/>
</g>
<!-- A8 -->
<g id="node9" class="node">
<title>A8</title>
<ellipse fill="none" stroke="#000000" cx="390.2872" cy="-332" rx="70.768" ry="22.7556"/>
<text text-anchor="middle" x="390.2872" y="-335" font-family="Helvetica,sans-Serif" font-size="10.00" fill="#000000">Change order of</text>
<text text-anchor="middle" x="390.2872" y="-323" font-family="Helvetica,sans-Serif" font-size="10.00" fill="#000000">Dishwashers</text>
</g>
<!-- A0&#45;&gt;A8 -->
<g id="edge6" class="edge">
<title>A0&#45;&gt;A8</title>
<path fill="none" stroke="#000000" d="M134.2466,-268.995C150.8127,-274.1579 168.5591,-279.47 185.136,-284 234.0052,-297.3548 290.0437,-310.3087 331.1902,-319.3867"/>
</g>
<!-- A13 -->
<g id="node14" class="node">
<title>A13</title>
<ellipse fill="none" stroke="#000000" cx="390.2872" cy="-285" rx="72.0934" ry="18"/>
<text text-anchor="middle" x="390.2872" y="-282" font-family="Helvetica,sans-Serif" font-size="10.00" fill="#000000">Remove Dishwasher</text>
</g>
<!-- A0&#45;&gt;A13 -->
<g id="edge18" class="edge">
<title>A0&#45;&gt;A13</title>
<path fill="none" stroke="#000000" d="M134.3949,-257.6146C142.719,-258.8158 151.1174,-259.9746 159.136,-261 213.8637,-267.9981 276.0811,-274.3681 322.17,-278.7841"/>
</g>
<!-- A14 -->
<g id="node15" class="node">
<title>A14</title>
<ellipse fill="none" stroke="#000000" cx="561.8987" cy="-177" rx="60.8972" ry="18"/>
<text text-anchor="middle" x="561.8987" y="-174" font-family="Helvetica,sans-Serif" font-size="10.00" fill="#000000">Set Fine amount</text>
</g>
<!-- A0&#45;&gt;A14 -->
<g id="edge25" class="edge">
<title>A0&#45;&gt;A14</title>
<path fill="none" stroke="#000000" d="M134.3932,-239.1587C213.2167,-229.7444 347.6272,-212.9635 462.5836,-195 478.2519,-192.5516 495.2539,-189.5848 510.6886,-186.7721"/>
</g>
<!-- A15 -->
<g id="node16" class="node">
<title>A15</title>
<ellipse fill="none" stroke="#000000" cx="561.8987" cy="-118" rx="63.3353" ry="22.7556"/>
<text text-anchor="middle" x="561.8987" y="-121" font-family="Helvetica,sans-Serif" font-size="10.00" fill="#000000">Set time to do</text>
<text text-anchor="middle" x="561.8987" y="-109" font-family="Helvetica,sans-Serif" font-size="10.00" fill="#000000">dishes</text>
</g>
<!-- A0&#45;&gt;A15 -->
<g id="edge26" class="edge">
<title>A0&#45;&gt;A15</title>
<path fill="none" stroke="#000000" d="M84.455,-210.8573C103.617,-175.6837 138.0776,-124.3678 185.136,-102 293.9342,-50.286 440.9712,-81.1765 515.0734,-102.6431"/>
</g>
<!-- A7 -->
<g id="node8" class="node">
<title>A7</title>
<ellipse fill="none" stroke="#000000" cx="814.8861" cy="-445" rx="56.9519" ry="22.7556"/>
<text text-anchor="middle" x="814.8861" y="-448" font-family="Helvetica,sans-Serif" font-size="10.00" fill="#000000">See current</text>
<text text-anchor="middle" x="814.8861" y="-436" font-family="Helvetica,sans-Serif" font-size="10.00" fill="#000000">Dishwasher</text>
</g>
<!-- A1&#45;&gt;A7 -->
<g id="edge4" class="edge">
<title>A1&#45;&gt;A7</title>
<path fill="none" stroke="#000000" d="M617.4179,-409.0949C660.7623,-416.9761 720.5455,-427.8463 762.9484,-435.5563"/>
</g>
<!-- A10 -->
<g id="node11" class="node">
<title>A10</title>
<ellipse fill="none" stroke="#000000" cx="814.8861" cy="-386" rx="46.4762" ry="18"/>
<text text-anchor="middle" x="814.8861" y="-383" font-family="Helvetica,sans-Serif" font-size="10.00" fill="#000000">View Fines</text>
</g>
<!-- A1&#45;&gt;A10 -->
<g id="edge11" class="edge">
<title>A1&#45;&gt;A10</title>
<path fill="none" stroke="#000000" d="M617.4179,-396.1471C662.7987,-393.8152 726.199,-390.5573 768.806,-388.3679"/>
</g>
<!-- A12 -->
<g id="node13" class="node">
<title>A12</title>
<ellipse fill="none" stroke="#000000" cx="814.8861" cy="-332" rx="73.7847" ry="18"/>
<text text-anchor="middle" x="814.8861" y="-329" font-family="Helvetica,sans-Serif" font-size="10.00" fill="#000000">See next Dishwasher</text>
</g>
<!-- A1&#45;&gt;A12 -->
<g id="edge14" class="edge">
<title>A1&#45;&gt;A12</title>
<path fill="none" stroke="#000000" d="M617.4179,-384.2966C661.3441,-372.6633 722.1534,-356.5589 764.6464,-345.3052"/>
</g>
<!-- A2 -->
<g id="node3" class="node">
<title>A2</title>
<ellipse fill="none" stroke="#000000" cx="814.8861" cy="-18" rx="64.9179" ry="18"/>
<text text-anchor="middle" x="814.8861" y="-15" font-family="Helvetica,sans-Serif" font-size="10.00" fill="#000000">Login to GroupMe</text>
</g>
<!-- A3 -->
<g id="node4" class="node">
<title>A3</title>
<ellipse fill="none" stroke="#000000" cx="1053.8394" cy="-141" rx="60.063" ry="18"/>
<text text-anchor="middle" x="1053.8394" y="-138" font-family="Helvetica,sans-Serif" font-size="10.00" fill="#000000">Login to Dishbot</text>
</g>
<!-- A9 -->
<g id="node10" class="node">
<title>A9</title>
<ellipse fill="none" stroke="#000000" cx="814.8861" cy="-231" rx="57.7153" ry="18"/>
<text text-anchor="middle" x="814.8861" y="-228" font-family="Helvetica,sans-Serif" font-size="10.00" fill="#000000">Manage House</text>
</g>
<!-- A4&#45;&gt;A9 -->
<g id="edge8" class="edge">
<title>A4&#45;&gt;A9</title>
<path fill="none" stroke="#000000" stroke-dasharray="5,2" d="M632.8458,-231C672.0719,-231 720.1907,-231 757.1028,-231"/>
<polygon fill="#000000" stroke="#000000" points="622.8175,-231 632.8175,-226.5001 627.8175,-231 632.8175,-231.0001 632.8175,-231.0001 632.8175,-231.0001 627.8175,-231 632.8174,-235.5001 622.8175,-231 622.8175,-231"/>
<text text-anchor="middle" x="688.7289" y="-234" font-family="Helvetica,sans-Serif" font-size="10.00" fill="#000000">&lt;&lt;extend&gt;&gt;</text>
</g>
<!-- A5&#45;&gt;A3 -->
<g id="edge5" class="edge">
<title>A5&#45;&gt;A3</title>
<path fill="none" stroke="#000000" stroke-dasharray="5,2" d="M277.6838,-116.355C290.4085,-112.5635 304.7033,-108.7 317.9907,-106 392.3677,-90.8866 411.8174,-90.4521 487.5836,-86 672.4662,-75.1361 890.299,-109.6928 993.6283,-128.9622"/>
<polygon fill="#000000" stroke="#000000" points="1003.5644,-130.8341 992.9041,-133.4048 998.6508,-129.9083 993.7373,-128.9826 993.7373,-128.9826 993.7373,-128.9826 998.6508,-129.9083 994.5704,-124.5604 1003.5644,-130.8341 1003.5644,-130.8341"/>
<text text-anchor="middle" x="688.7289" y="-94" font-family="Helvetica,sans-Serif" font-size="10.00" fill="#000000">&lt;&lt;include&gt;&gt;</text>
</g>
<!-- A5&#45;&gt;A4 -->
<g id="edge24" class="edge">
<title>A5&#45;&gt;A4</title>
<path fill="none" stroke="#000000" stroke-dasharray="5,2" d="M273.0004,-143.1115C286.8478,-148.664 303.0822,-154.9141 317.9907,-160 381.8382,-181.7809 456.4658,-202.8814 506.1967,-216.3384"/>
<polygon fill="#000000" stroke="#000000" points="516.1089,-219.0086 505.2826,-220.7526 511.281,-217.7081 506.4531,-216.4075 506.4531,-216.4075 506.4531,-216.4075 511.281,-217.7081 507.6237,-212.0624 516.1089,-219.0086 516.1089,-219.0086"/>
<text text-anchor="middle" x="390.2872" y="-208" font-family="Helvetica,sans-Serif" font-size="10.00" fill="#000000">&lt;&lt;include&gt;&gt;</text>
</g>
<!-- A6 -->
<g id="node7" class="node">
<title>A6</title>
<ellipse fill="none" stroke="#000000" cx="561.8987" cy="-18" rx="74.1307" ry="18"/>
<text text-anchor="middle" x="561.8987" y="-15" font-family="Helvetica,sans-Serif" font-size="10.00" fill="#000000">See GroupMe groups</text>
</g>
<!-- A5&#45;&gt;A6 -->
<g id="edge16" class="edge">
<title>A5&#45;&gt;A6</title>
<path fill="none" stroke="#000000" stroke-dasharray="5,2" d="M255.5976,-102.8377C269.624,-83.0829 291.6404,-57.1971 317.9907,-44 371.5835,-17.1591 439.975,-11.9733 490.692,-12.7441"/>
<polygon fill="#000000" stroke="#000000" points="249.9073,-111.1439 251.8465,-100.3508 252.7331,-107.019 255.5589,-102.8941 255.5589,-102.8941 255.5589,-102.8941 252.7331,-107.019 259.2714,-105.4373 249.9073,-111.1439 249.9073,-111.1439"/>
<text text-anchor="middle" x="390.2872" y="-47" font-family="Helvetica,sans-Serif" font-size="10.00" fill="#000000">&lt;&lt;extend&gt;&gt;</text>
</g>
<!-- A5&#45;&gt;A14 -->
<g id="edge22" class="edge">
<title>A5&#45;&gt;A14</title>
<path fill="none" stroke="#000000" stroke-dasharray="5,2" d="M293.2127,-130.5846C338.7327,-132.6354 405.3477,-137.3214 462.5836,-148 478.8065,-151.0267 496.1768,-155.6161 511.7814,-160.2567"/>
<polygon fill="#000000" stroke="#000000" points="521.7511,-163.2978 510.8732,-164.6843 516.9686,-161.8389 512.1861,-160.3801 512.1861,-160.3801 512.1861,-160.3801 516.9686,-161.8389 513.4991,-156.0759 521.7511,-163.2978 521.7511,-163.2978"/>
<text text-anchor="middle" x="390.2872" y="-151" font-family="Helvetica,sans-Serif" font-size="10.00" fill="#000000">&lt;&lt;include&gt;&gt;</text>
</g>
<!-- A5&#45;&gt;A15 -->
<g id="edge23" class="edge">
<title>A5&#45;&gt;A15</title>
<path fill="none" stroke="#000000" stroke-dasharray="5,2" d="M283.0747,-118.4595C294.3858,-116.1976 306.5833,-114.1446 317.9907,-113 375.6296,-107.2166 441.3003,-109.0401 489.9683,-111.9931"/>
<polygon fill="#000000" stroke="#000000" points="500.0864,-112.6381 489.8203,-116.4928 495.0965,-112.32 490.1066,-112.0019 490.1066,-112.0019 490.1066,-112.0019 495.0965,-112.32 490.393,-107.511 500.0864,-112.6381 500.0864,-112.6381"/>
<text text-anchor="middle" x="390.2872" y="-116" font-family="Helvetica,sans-Serif" font-size="10.00" fill="#000000">&lt;&lt;include&gt;&gt;</text>
</g>
<!-- A6&#45;&gt;A2 -->
<g id="edge15" class="edge">
<title>A6&#45;&gt;A2</title>
<path fill="none" stroke="#000000" stroke-dasharray="5,2" d="M636.435,-18C668.92,-18 706.9385,-18 739.5172,-18"/>
<polygon fill="#000000" stroke="#000000" points="749.8896,-18 739.8897,-22.5001 744.8896,-18 739.8896,-18.0001 739.8896,-18.0001 739.8896,-18.0001 744.8896,-18 739.8896,-13.5001 749.8896,-18 749.8896,-18"/>
<text text-anchor="middle" x="688.7289" y="-21" font-family="Helvetica,sans-Serif" font-size="10.00" fill="#000000">&lt;&lt;include&gt;&gt;</text>
</g>
<!-- A11 -->
<g id="node12" class="node">
<title>A11</title>
<ellipse fill="none" stroke="#000000" cx="1053.8394" cy="-359" rx="48.827" ry="18"/>
<text text-anchor="middle" x="1053.8394" y="-356" font-family="Helvetica,sans-Serif" font-size="10.00" fill="#000000">View House</text>
</g>
<!-- A7&#45;&gt;A11 -->
<g id="edge12" class="edge">
<title>A7&#45;&gt;A11</title>
<path fill="none" stroke="#000000" stroke-dasharray="5,2" d="M867.0606,-426.3988C896.8134,-415.7733 934.7913,-402.1798 968.5583,-390 985.1557,-384.0133 1003.5537,-377.3314 1018.9999,-371.7084"/>
<polygon fill="#000000" stroke="#000000" points="857.3038,-429.8822 865.2085,-422.2818 862.0127,-428.201 866.7216,-426.5198 866.7216,-426.5198 866.7216,-426.5198 862.0127,-428.201 868.2346,-430.7578 857.3038,-429.8822 857.3038,-429.8822"/>
<text text-anchor="middle" x="941.0433" y="-412" font-family="Helvetica,sans-Serif" font-size="10.00" fill="#000000">&lt;&lt;extend&gt;&gt;</text>
</g>
<!-- A8&#45;&gt;A9 -->
<g id="edge7" class="edge">
<title>A8&#45;&gt;A9</title>
<path fill="none" stroke="#000000" stroke-dasharray="5,2" d="M467.0819,-322.8108C515.9182,-316.1571 580.2635,-305.8885 636.2139,-292 672.6468,-282.9563 680.7144,-277.1163 716.2439,-265 735.9602,-258.2763 757.8684,-250.7323 776.0205,-244.4618"/>
<polygon fill="#000000" stroke="#000000" points="456.9048,-324.1757 466.2178,-318.3863 461.8604,-323.511 466.816,-322.8464 466.816,-322.8464 466.816,-322.8464 461.8604,-323.511 467.4142,-327.3064 456.9048,-324.1757 456.9048,-324.1757"/>
<text text-anchor="middle" x="561.8987" y="-322" font-family="Helvetica,sans-Serif" font-size="10.00" fill="#000000">&lt;&lt;extend&gt;&gt;</text>
</g>
<!-- A9&#45;&gt;A3 -->
<g id="edge9" class="edge">
<title>A9&#45;&gt;A3</title>
<path fill="none" stroke="#000000" stroke-dasharray="5,2" d="M851.6989,-217.1347C893.2891,-201.4701 961.0919,-175.9327 1006.5658,-158.8053"/>
<polygon fill="#000000" stroke="#000000" points="1016.1959,-155.1782 1008.4238,-162.9141 1011.5168,-156.9405 1006.8377,-158.7029 1006.8377,-158.7029 1006.8377,-158.7029 1011.5168,-156.9405 1005.2515,-154.4917 1016.1959,-155.1782 1016.1959,-155.1782"/>
<text text-anchor="middle" x="941.0433" y="-195" font-family="Helvetica,sans-Serif" font-size="10.00" fill="#000000">&lt;&lt;include&gt;&gt;</text>
</g>
<!-- A9&#45;&gt;A11 -->
<g id="edge17" class="edge">
<title>A9&#45;&gt;A11</title>
<path fill="none" stroke="#000000" stroke-dasharray="5,2" d="M853.0642,-251.4509C901.2431,-277.2588 982.9732,-321.0391 1025.7846,-343.9719"/>
<polygon fill="#000000" stroke="#000000" points="844.1865,-246.6953 855.1263,-247.4505 848.594,-249.0563 853.0015,-251.4173 853.0015,-251.4173 853.0015,-251.4173 848.594,-249.0563 850.8766,-255.384 844.1865,-246.6953 844.1865,-246.6953"/>
<text text-anchor="middle" x="941.0433" y="-314" font-family="Helvetica,sans-Serif" font-size="10.00" fill="#000000">&lt;&lt;extend&gt;&gt;</text>
</g>
<!-- A10&#45;&gt;A11 -->
<g id="edge10" class="edge">
<title>A10&#45;&gt;A11</title>
<path fill="none" stroke="#000000" stroke-dasharray="5,2" d="M869.4926,-379.8299C910.9915,-375.1408 967.475,-368.7586 1006.9434,-364.2989"/>
<polygon fill="#000000" stroke="#000000" points="859.5511,-380.9532 868.9826,-375.3588 864.5195,-380.3917 869.4879,-379.8303 869.4879,-379.8303 869.4879,-379.8303 864.5195,-380.3917 869.9932,-384.3019 859.5511,-380.9532 859.5511,-380.9532"/>
<text text-anchor="middle" x="941.0433" y="-377" font-family="Helvetica,sans-Serif" font-size="10.00" fill="#000000">&lt;&lt;extend&gt;&gt;</text>
</g>
<!-- A12&#45;&gt;A11 -->
<g id="edge13" class="edge">
<title>A12&#45;&gt;A11</title>
<path fill="none" stroke="#000000" stroke-dasharray="5,2" d="M891.7695,-340.6873C929.724,-344.9759 974.2768,-350.01 1007.0546,-353.7137"/>
<polygon fill="#000000" stroke="#000000" points="881.7657,-339.5569 892.2077,-336.2082 886.7341,-340.1183 891.7024,-340.6798 891.7024,-340.6798 891.7024,-340.6798 886.7341,-340.1183 891.1972,-345.1513 881.7657,-339.5569 881.7657,-339.5569"/>
<text text-anchor="middle" x="941.0433" y="-351" font-family="Helvetica,sans-Serif" font-size="10.00" fill="#000000">&lt;&lt;extend&gt;&gt;</text>
</g>
<!-- A13&#45;&gt;A9 -->
<g id="edge19" class="edge">
<title>A13&#45;&gt;A9</title>
<path fill="none" stroke="#000000" stroke-dasharray="5,2" d="M468.222,-277.359C534.3758,-270.5276 631.7407,-259.6588 716.2439,-247 731.7716,-244.6739 748.6484,-241.9928 763.9799,-239.4985"/>
<polygon fill="#000000" stroke="#000000" points="457.8795,-278.4204 467.3678,-272.9229 462.8533,-277.9099 467.8272,-277.3994 467.8272,-277.3994 467.8272,-277.3994 462.8533,-277.9099 468.2866,-281.8759 457.8795,-278.4204 457.8795,-278.4204"/>
<text text-anchor="middle" x="561.8987" y="-279" font-family="Helvetica,sans-Serif" font-size="10.00" fill="#000000">&lt;&lt;extend&gt;&gt;</text>
</g>
<!-- A14&#45;&gt;A9 -->
<g id="edge20" class="edge">
<title>A14&#45;&gt;A9</title>
<path fill="none" stroke="#000000" stroke-dasharray="5,2" d="M621.3752,-189.6952C665.7879,-199.1751 725.6977,-211.9628 767.0345,-220.7861"/>
<polygon fill="#000000" stroke="#000000" points="611.5791,-187.6042 622.2982,-185.2909 616.4689,-188.648 621.3588,-189.6918 621.3588,-189.6918 621.3588,-189.6918 616.4689,-188.648 620.4194,-194.0926 611.5791,-187.6042 611.5791,-187.6042"/>
<text text-anchor="middle" x="688.7289" y="-212" font-family="Helvetica,sans-Serif" font-size="10.00" fill="#000000">&lt;&lt;extend&gt;&gt;</text>
</g>
<!-- A15&#45;&gt;A9 -->
<g id="edge21" class="edge">
<title>A15&#45;&gt;A9</title>
<path fill="none" stroke="#000000" stroke-dasharray="5,2" d="M612.8472,-139.1742C643.0388,-151.8738 681.9745,-168.5165 716.2439,-184 738.8903,-194.2321 764.1896,-206.2995 783.4966,-215.6446"/>
<polygon fill="#000000" stroke="#000000" points="603.369,-135.1959 614.3313,-134.9168 607.9794,-137.131 612.5897,-139.0661 612.5897,-139.0661 612.5897,-139.0661 607.9794,-137.131 610.8481,-143.2155 603.369,-135.1959 603.369,-135.1959"/>
<text text-anchor="middle" x="688.7289" y="-187" font-family="Helvetica,sans-Serif" font-size="10.00" fill="#000000">&lt;&lt;extend&gt;&gt;</text>
</g>
</g>
</svg>
